<?xml version="1.0" encoding="utf-8"?>
<!-- Generator: Adobe Illustrator 26.0.1, SVG Export Plug-In . SVG Version: 6.00 Build 0)  -->
<!DOCTYPE svg PUBLIC "-//W3C//DTD SVG 1.1//EN" "http://www.w3.org/Graphics/SVG/1.1/DTD/svg11.dtd" [
	<!ENTITY ns_extend "http://ns.adobe.com/Extensibility/1.0/">
	<!ENTITY ns_ai "http://ns.adobe.com/AdobeIllustrator/10.0/">
	<!ENTITY ns_graphs "http://ns.adobe.com/Graphs/1.0/">
	<!ENTITY ns_vars "http://ns.adobe.com/Variables/1.0/">
	<!ENTITY ns_imrep "http://ns.adobe.com/ImageReplacement/1.0/">
	<!ENTITY ns_sfw "http://ns.adobe.com/SaveForWeb/1.0/">
	<!ENTITY ns_custom "http://ns.adobe.com/GenericCustomNamespace/1.0/">
	<!ENTITY ns_adobe_xpath "http://ns.adobe.com/XPath/1.0/">
]>
<svg version="1.1" id="Layer_1" xmlns:x="&ns_extend;" xmlns:i="&ns_ai;" xmlns:graph="&ns_graphs;"
	 xmlns="http://www.w3.org/2000/svg" xmlns:xlink="http://www.w3.org/1999/xlink" x="0px" y="0px" viewBox="0 0 1080 634.6"
	 style="enable-background:new 0 0 1080 634.6;" xml:space="preserve">
<style type="text/css">
	.st0{fill:#E8E8E8;}
	.st1{fill:#BABABA;}
	.st2{fill:#FFFFFF;}
	.st3{fill:#212121;}
	.st4{fill:#D1D6D8;}
	.st5{fill:#686868;}
	.st6{fill:#ADADAD;}
</style>
<metadata>
	<sfw  xmlns="&ns_sfw;">
		<slices></slices>
		<sliceSourceBounds  bottomLeftOrigin="true" height="634.6" width="1080" x="-242" y="103.7"></sliceSourceBounds>
	</sfw>
</metadata>
<g>
	<rect x="0" y="0" class="st0" width="1080" height="634.6"/>
	<g>
		<g>
			<g>
				<path class="st1" d="M89.5,154.2H34.8c-10.6,0-19-8.5-19-19V52.4c0-10.6,8.5-19,19-19h54.8c10.6,0,19,8.5,19,19v82.7
					C108.6,145.7,100.1,154.2,89.5,154.2z"/>
				<path class="st1" d="M195.8,154.2H141c-10.6,0-19-8.5-19-19V52.4c0-10.6,8.5-19,19-19h54.8c10.6,0,19,8.5,19,19v82.7
					C214.8,145.7,206.4,154.2,195.8,154.2z"/>
				<path class="st1" d="M302,154.2h-54.8c-10.6,0-19-8.5-19-19V52.4c0-10.6,8.5-19,19-19H302c10.6,0,19,8.5,19,19v82.7
					C321.1,145.7,312.4,154.2,302,154.2z"/>
				<path class="st1" d="M408.3,154.2h-54.8c-10.6,0-19-8.5-19-19V52.4c0-10.6,8.5-19,19-19h54.8c10.6,0,19,8.5,19,19v82.7
					C427.3,145.7,418.6,154.2,408.3,154.2z"/>
				<path class="st1" d="M514.5,154.2h-54.8c-10.6,0-19-8.5-19-19V52.4c0-10.6,8.5-19,19-19h54.8c10.6,0,19,8.5,19,19v82.7
					C533.3,145.7,524.8,154.2,514.5,154.2z"/>
				<path class="st1" d="M620.7,154.2H566c-10.6,0-19-8.5-19-19V52.4c0-10.6,8.5-19,19-19h54.8c10.6,0,19,8.5,19,19v82.7
					C639.5,145.7,631.1,154.2,620.7,154.2z"/>
				<path class="st1" d="M726.7,154.2H672c-10.6,0-19-8.5-19-19V52.4c0-10.6,8.5-19,19-19h54.8c10.6,0,19,8.5,19,19v82.7
					C745.8,145.7,737.3,154.2,726.7,154.2z"/>
				<path class="st1" d="M833,154.2h-54.8c-10.6,0-19-8.5-19-19V52.4c0-10.6,8.5-19,19-19H833c10.6,0,19,8.5,19,19v82.7
					C852,145.7,843.6,154.2,833,154.2z"/>
				<path class="st1" d="M939.2,154.2h-54.8c-10.6,0-19-8.5-19-19V52.4c0-10.6,8.5-19,19-19h54.8c10.6,0,19,8.5,19,19v82.7
					C958.3,145.7,949.8,154.2,939.2,154.2z"/>
				<path class="st1" d="M1045.4,154.2h-54.8c-10.6,0-19-8.5-19-19V52.4c0-10.6,8.5-19,19-19h54.8c10.6,0,19,8.5,19,19v82.7
					C1064.5,145.7,1056,154.2,1045.4,154.2z"/>
			</g>
			<g>
				<path class="st1" d="M142.7,303.9H87.9c-10.6,0-19-8.5-19-19v-82.7c0-10.6,8.5-19,19-19h54.8c10.6,0,19,8.5,19,19v82.7
					C161.7,295.4,153.2,303.9,142.7,303.9z"/>
				<path class="st1" d="M248.9,303.9h-54.8c-10.6,0-19-8.5-19-19v-82.7c0-10.6,8.5-19,19-19h54.8c10.6,0,19,8.5,19,19v82.7
					C267.9,295.4,259.5,303.9,248.9,303.9z"/>
				<path class="st1" d="M355.1,303.9h-54.8c-10.6,0-19-8.5-19-19v-82.7c0-10.6,8.5-19,19-19h54.8c10.6,0,19,8.5,19,19v82.7
					C374.2,295.4,365.5,303.9,355.1,303.9z"/>
				<path class="st1" d="M461.4,303.9h-54.8c-10.6,0-19-8.5-19-19v-82.7c0-10.6,8.5-19,19-19h54.8c10.6,0,19,8.5,19,19v82.7
					C480.4,295.4,471.7,303.9,461.4,303.9z"/>
				<path class="st1" d="M567.6,303.9h-54.8c-10.6,0-19-8.5-19-19v-82.7c0-10.6,8.5-19,19-19h54.8c10.6,0,19,8.5,19,19v82.7
					C586.4,295.4,578,303.9,567.6,303.9z"/>
				<path class="st1" d="M673.9,303.9h-54.8c-10.6,0-19-8.5-19-19v-82.7c0-10.6,8.5-19,19-19h54.8c10.6,0,19,8.5,19,19v82.7
					C692.7,295.4,684.2,303.9,673.9,303.9z"/>
				<path class="st1" d="M779.9,303.9h-54.8c-10.6,0-19-8.5-19-19v-82.7c0-10.6,8.5-19,19-19h54.8c10.6,0,19,8.5,19,19v82.7
					C798.9,295.4,790.4,303.9,779.9,303.9z"/>
				<path class="st1" d="M886.1,303.9h-54.8c-10.6,0-19-8.5-19-19v-82.7c0-10.6,8.5-19,19-19h54.8c10.6,0,19,8.5,19,19v82.7
					C905.1,295.4,896.7,303.9,886.1,303.9z"/>
				<path class="st1" d="M992.3,303.9h-54.8c-10.6,0-19-8.5-19-19v-82.7c0-10.6,8.5-19,19-19h54.8c10.6,0,19,8.5,19,19v82.7
					C1011.4,295.4,1002.9,303.9,992.3,303.9z"/>
			</g>
			<g>
				<path class="st1" d="M142.7,453.9H34.8c-10.6,0-19-8.5-19-19v-82.7c0-10.6,8.5-19,19-19h107.9c10.6,0,19,8.5,19,19v82.7
					C161.7,445.4,153.2,453.9,142.7,453.9z"/>
			</g>
			<g>
				<path class="st1" d="M248.9,453.9h-54.8c-10.6,0-19-8.5-19-19v-82.7c0-10.6,8.5-19,19-19h54.8c10.6,0,19,8.5,19,19v82.7
					C267.9,445.4,259.5,453.9,248.9,453.9z"/>
				<path class="st1" d="M355.1,453.9h-54.8c-10.6,0-19-8.5-19-19v-82.7c0-10.6,8.5-19,19-19h54.8c10.6,0,19,8.5,19,19v82.7
					C374.2,445.4,365.5,453.9,355.1,453.9z"/>
				<path class="st1" d="M461.4,453.9h-54.8c-10.6,0-19-8.5-19-19v-82.7c0-10.6,8.5-19,19-19h54.8c10.6,0,19,8.5,19,19v82.7
					C480.4,445.4,471.7,453.9,461.4,453.9z"/>
				<path class="st1" d="M567.6,453.9h-54.8c-10.6,0-19-8.5-19-19v-82.7c0-10.6,8.5-19,19-19h54.8c10.6,0,19,8.5,19,19v82.7
					C586.4,445.4,578,453.9,567.6,453.9z"/>
				<path class="st1" d="M673.9,453.9h-54.8c-10.6,0-19-8.5-19-19v-82.7c0-10.6,8.5-19,19-19h54.8c10.6,0,19,8.5,19,19v82.7
					C692.7,445.4,684.2,453.9,673.9,453.9z"/>
				<path class="st1" d="M779.9,453.9h-54.8c-10.6,0-19-8.5-19-19v-82.7c0-10.6,8.5-19,19-19h54.8c10.6,0,19,8.5,19,19v82.7
					C798.9,445.4,790.4,453.9,779.9,453.9z"/>
				<path class="st1" d="M886.1,453.9h-54.8c-10.6,0-19-8.5-19-19v-82.7c0-10.6,8.5-19,19-19h54.8c10.6,0,19,8.5,19,19v82.7
					C905.1,445.4,896.7,453.9,886.1,453.9z"/>
			</g>
			<path class="st1" d="M798.9,501.8v82.7c0,10.6-8.5,19-19,19H406.4c-10.6,0-19-8.5-19-19v-82.7c0-10.6,8.5-19,19-19h373.5
				C790.4,482.8,798.9,491.2,798.9,501.8z"/>
			<g>
				<g>
					<path class="st1" d="M1045.4,453.9H937.6c-10.6,0-19-8.5-19-19v-82.7c0-10.6,8.5-19,19-19h107.9c10.6,0,19,8.5,19,19v82.7
						C1064.5,445.4,1056,453.9,1045.4,453.9z"/>
					<path class="st1" d="M248.9,603.6h-54.8c-10.6,0-19-8.5-19-19v-82.7c0-10.6,8.5-19,19-19h54.8c10.6,0,19,8.5,19,19v82.7
						C267.9,595.1,259.5,603.6,248.9,603.6z"/>
					<path class="st1" d="M355.1,603.6h-54.8c-10.6,0-19-8.5-19-19v-82.7c0-10.6,8.5-19,19-19h54.8c10.6,0,19,8.5,19,19v82.7
						C374.2,595.1,365.5,603.6,355.1,603.6z"/>
					<path class="st1" d="M886.1,603.6h-54.8c-10.6,0-19-8.5-19-19v-82.7c0-10.6,8.5-19,19-19h54.8c10.6,0,19,8.5,19,19v82.7
						C905.1,595.1,896.7,603.6,886.1,603.6z"/>
					<path class="st1" d="M1045.4,603.6H937.6c-10.6,0-19-8.5-19-19v-82.7c0-10.6,8.5-19,19-19h107.9c10.6,0,19,8.5,19,19v82.7
						C1064.5,595.1,1056,603.6,1045.4,603.6z"/>
					<path class="st1" d="M142.7,603.6H34.8c-10.6,0-19-8.5-19-19v-82.7c0-10.6,8.5-19,19-19h107.9c10.6,0,19,8.5,19,19v82.7
						C161.7,595.1,153.2,603.6,142.7,603.6z"/>
				</g>
			</g>
		</g>
	</g>
	<g>
		<g>
			<g>
				<g>
					<g>
						<path class="st1" d="M89.5,154.2H34.8c-10.6,0-19-8.5-19-19V52.4c0-10.6,8.5-19,19-19h54.8c10.6,0,19,8.5,19,19v82.7
							C108.6,145.7,100.1,154.2,89.5,154.2z"/>
						<path class="st1" d="M195.8,154.2H141c-10.6,0-19-8.5-19-19V52.4c0-10.6,8.5-19,19-19h54.8c10.6,0,19,8.5,19,19v82.7
							C214.8,145.7,206.4,154.2,195.8,154.2z"/>
						<path class="st1" d="M302,154.2h-54.8c-10.6,0-19-8.5-19-19V52.4c0-10.6,8.5-19,19-19H302c10.6,0,19,8.5,19,19v82.7
							C321.1,145.7,312.4,154.2,302,154.2z"/>
						<path class="st1" d="M408.3,154.2h-54.8c-10.6,0-19-8.5-19-19V52.4c0-10.6,8.5-19,19-19h54.8c10.6,0,19,8.5,19,19v82.7
							C427.3,145.7,418.6,154.2,408.3,154.2z"/>
						<path class="st1" d="M514.5,154.2h-54.8c-10.6,0-19-8.5-19-19V52.4c0-10.6,8.5-19,19-19h54.8c10.6,0,19,8.5,19,19v82.7
							C533.3,145.7,524.8,154.2,514.5,154.2z"/>
						<path class="st1" d="M620.7,154.2H566c-10.6,0-19-8.5-19-19V52.4c0-10.6,8.5-19,19-19h54.8c10.6,0,19,8.5,19,19v82.7
							C639.5,145.7,631.1,154.2,620.7,154.2z"/>
						<path class="st1" d="M726.7,154.2H672c-10.6,0-19-8.5-19-19V52.4c0-10.6,8.5-19,19-19h54.8c10.6,0,19,8.5,19,19v82.7
							C745.8,145.7,737.3,154.2,726.7,154.2z"/>
						<path class="st1" d="M833,154.2h-54.8c-10.6,0-19-8.5-19-19V52.4c0-10.6,8.5-19,19-19H833c10.6,0,19,8.5,19,19v82.7
							C852,145.7,843.6,154.2,833,154.2z"/>
						<path class="st1" d="M939.2,154.2h-54.8c-10.6,0-19-8.5-19-19V52.4c0-10.6,8.5-19,19-19h54.8c10.6,0,19,8.5,19,19v82.7
							C958.3,145.7,949.8,154.2,939.2,154.2z"/>
						<path class="st1" d="M1045.4,154.2h-54.8c-10.6,0-19-8.5-19-19V52.4c0-10.6,8.5-19,19-19h54.8c10.6,0,19,8.5,19,19v82.7
							C1064.5,145.7,1056,154.2,1045.4,154.2z"/>
					</g>
					<g>
						<path class="st1" d="M142.7,303.9H87.9c-10.6,0-19-8.5-19-19v-82.7c0-10.6,8.5-19,19-19h54.8c10.6,0,19,8.5,19,19v82.7
							C161.7,295.4,153.2,303.9,142.7,303.9z"/>
						<path class="st1" d="M248.9,303.9h-54.8c-10.6,0-19-8.5-19-19v-82.7c0-10.6,8.5-19,19-19h54.8c10.6,0,19,8.5,19,19v82.7
							C267.9,295.4,259.5,303.9,248.9,303.9z"/>
						<path class="st1" d="M355.1,303.9h-54.8c-10.6,0-19-8.5-19-19v-82.7c0-10.6,8.5-19,19-19h54.8c10.6,0,19,8.5,19,19v82.7
							C374.2,295.4,365.5,303.9,355.1,303.9z"/>
						<path class="st1" d="M461.4,303.9h-54.8c-10.6,0-19-8.5-19-19v-82.7c0-10.6,8.5-19,19-19h54.8c10.6,0,19,8.5,19,19v82.7
							C480.4,295.4,471.7,303.9,461.4,303.9z"/>
						<path class="st1" d="M567.6,303.9h-54.8c-10.6,0-19-8.5-19-19v-82.7c0-10.6,8.5-19,19-19h54.8c10.6,0,19,8.5,19,19v82.7
							C586.4,295.4,578,303.9,567.6,303.9z"/>
						<path class="st1" d="M673.9,303.9h-54.8c-10.6,0-19-8.5-19-19v-82.7c0-10.6,8.5-19,19-19h54.8c10.6,0,19,8.5,19,19v82.7
							C692.7,295.4,684.2,303.9,673.9,303.9z"/>
						<path class="st1" d="M779.9,303.9h-54.8c-10.6,0-19-8.5-19-19v-82.7c0-10.6,8.5-19,19-19h54.8c10.6,0,19,8.5,19,19v82.7
							C798.9,295.4,790.4,303.9,779.9,303.9z"/>
						<path class="st1" d="M886.1,303.9h-54.8c-10.6,0-19-8.5-19-19v-82.7c0-10.6,8.5-19,19-19h54.8c10.6,0,19,8.5,19,19v82.7
							C905.1,295.4,896.7,303.9,886.1,303.9z"/>
						<path class="st1" d="M992.3,303.9h-54.8c-10.6,0-19-8.5-19-19v-82.7c0-10.6,8.5-19,19-19h54.8c10.6,0,19,8.5,19,19v82.7
							C1011.4,295.4,1002.9,303.9,992.3,303.9z"/>
					</g>
					<g>
						<path class="st1" d="M142.7,453.9H34.8c-10.6,0-19-8.5-19-19v-82.7c0-10.6,8.5-19,19-19h107.9c10.6,0,19,8.5,19,19v82.7
							C161.7,445.4,153.2,453.9,142.7,453.9z"/>
					</g>
					<g>
						<path class="st1" d="M248.9,453.9h-54.8c-10.6,0-19-8.5-19-19v-82.7c0-10.6,8.5-19,19-19h54.8c10.6,0,19,8.5,19,19v82.7
							C267.9,445.4,259.5,453.9,248.9,453.9z"/>
						<path class="st1" d="M355.1,453.9h-54.8c-10.6,0-19-8.5-19-19v-82.7c0-10.6,8.5-19,19-19h54.8c10.6,0,19,8.5,19,19v82.7
							C374.2,445.4,365.5,453.9,355.1,453.9z"/>
						<path class="st1" d="M461.4,453.9h-54.8c-10.6,0-19-8.5-19-19v-82.7c0-10.6,8.5-19,19-19h54.8c10.6,0,19,8.5,19,19v82.7
							C480.4,445.4,471.7,453.9,461.4,453.9z"/>
						<path class="st1" d="M567.6,453.9h-54.8c-10.6,0-19-8.5-19-19v-82.7c0-10.6,8.5-19,19-19h54.8c10.6,0,19,8.5,19,19v82.7
							C586.4,445.4,578,453.9,567.6,453.9z"/>
						<path class="st1" d="M673.9,453.9h-54.8c-10.6,0-19-8.5-19-19v-82.7c0-10.6,8.5-19,19-19h54.8c10.6,0,19,8.5,19,19v82.7
							C692.7,445.4,684.2,453.9,673.9,453.9z"/>
						<path class="st1" d="M779.9,453.9h-54.8c-10.6,0-19-8.5-19-19v-82.7c0-10.6,8.5-19,19-19h54.8c10.6,0,19,8.5,19,19v82.7
							C798.9,445.4,790.4,453.9,779.9,453.9z"/>
						<path class="st1" d="M886.1,453.9h-54.8c-10.6,0-19-8.5-19-19v-82.7c0-10.6,8.5-19,19-19h54.8c10.6,0,19,8.5,19,19v82.7
							C905.1,445.4,896.7,453.9,886.1,453.9z"/>
					</g>
					<path class="st1" d="M798.9,501.8v82.7c0,10.6-8.5,19-19,19H406.4c-10.6,0-19-8.5-19-19v-82.7c0-10.6,8.5-19,19-19h373.5
						C790.4,482.8,798.9,491.2,798.9,501.8z"/>
					<g>
						<g>
							<path class="st1" d="M1045.4,453.9H937.6c-10.6,0-19-8.5-19-19v-82.7c0-10.6,8.5-19,19-19h107.9c10.6,0,19,8.5,19,19v82.7
								C1064.5,445.4,1056,453.9,1045.4,453.9z"/>
							<path class="st1" d="M248.9,603.6h-54.8c-10.6,0-19-8.5-19-19v-82.7c0-10.6,8.5-19,19-19h54.8c10.6,0,19,8.5,19,19v82.7
								C267.9,595.1,259.5,603.6,248.9,603.6z"/>
							<path class="st1" d="M355.1,603.6h-54.8c-10.6,0-19-8.5-19-19v-82.7c0-10.6,8.5-19,19-19h54.8c10.6,0,19,8.5,19,19v82.7
								C374.2,595.1,365.5,603.6,355.1,603.6z"/>
							<path class="st1" d="M886.1,603.6h-54.8c-10.6,0-19-8.5-19-19v-82.7c0-10.6,8.5-19,19-19h54.8c10.6,0,19,8.5,19,19v82.7
								C905.1,595.1,896.7,603.6,886.1,603.6z"/>
							<path class="st1" d="M1045.4,603.6H937.6c-10.6,0-19-8.5-19-19v-82.7c0-10.6,8.5-19,19-19h107.9c10.6,0,19,8.5,19,19v82.7
								C1064.5,595.1,1056,603.6,1045.4,603.6z"/>
							<path class="st1" d="M142.7,603.6H34.8c-10.6,0-19-8.5-19-19v-82.7c0-10.6,8.5-19,19-19h107.9c10.6,0,19,8.5,19,19v82.7
								C161.7,595.1,153.2,603.6,142.7,603.6z"/>
						</g>
					</g>
				</g>
			</g>
			<g>
				<path class="st2" d="M89.5,151.8H34.8c-10.6,0-19-8.5-19-19V50.1c0-10.6,8.5-19,19-19h54.8c10.6,0,19,8.5,19,19v82.7
					C108.6,143.4,100.1,151.8,89.5,151.8z"/>
				<path class="st2" d="M195.8,151.8H141c-10.6,0-19-8.5-19-19V50.1c0-10.6,8.5-19,19-19h54.8c10.6,0,19,8.5,19,19v82.7
					C214.8,143.4,206.4,151.8,195.8,151.8z"/>
				<path class="st2" d="M302,151.8h-54.8c-10.6,0-19-8.5-19-19V50.1c0-10.6,8.5-19,19-19H302c10.6,0,19,8.5,19,19v82.7
					C321.1,143.4,312.4,151.8,302,151.8z"/>
				<path class="st2" d="M408.3,151.8h-54.8c-10.6,0-19-8.5-19-19V50.1c0-10.6,8.5-19,19-19h54.8c10.6,0,19,8.5,19,19v82.7
					C427.3,143.4,418.6,151.8,408.3,151.8z"/>
				<path class="st2" d="M514.5,151.8h-54.8c-10.6,0-19-8.5-19-19V50.1c0-10.6,8.5-19,19-19h54.8c10.6,0,19,8.5,19,19v82.7
					C533.3,143.4,524.8,151.8,514.5,151.8z"/>
				<path class="st2" d="M620.7,151.8H566c-10.6,0-19-8.5-19-19V50.1c0-10.6,8.5-19,19-19h54.8c10.6,0,19,8.5,19,19v82.7
					C639.5,143.4,631.1,151.8,620.7,151.8z"/>
				<path class="st2" d="M726.7,151.8H672c-10.6,0-19-8.5-19-19V50.1c0-10.6,8.5-19,19-19h54.8c10.6,0,19,8.5,19,19v82.7
					C745.8,143.4,737.3,151.8,726.7,151.8z"/>
				<path class="st2" d="M833,151.8h-54.8c-10.6,0-19-8.5-19-19V50.1c0-10.6,8.5-19,19-19H833c10.6,0,19,8.5,19,19v82.7
					C852,143.4,843.6,151.8,833,151.8z"/>
				<path class="st2" d="M939.2,151.8h-54.8c-10.6,0-19-8.5-19-19V50.1c0-10.6,8.5-19,19-19h54.8c10.6,0,19,8.5,19,19v82.7
					C958.3,143.4,949.8,151.8,939.2,151.8z"/>
				<path class="st2" d="M1045.4,151.8h-54.8c-10.6,0-19-8.5-19-19V50.1c0-10.6,8.5-19,19-19h54.8c10.6,0,19,8.5,19,19v82.7
					C1064.5,143.4,1056,151.8,1045.4,151.8z"/>
				<g>
					<path class="st3" d="M570.9,75.9v-4.5h44.9v4.5H570.9z M585.7,97.3c-1.4,0-2.8-0.2-3.8-0.5c-1.2-0.2-1.9-0.9-2.6-1.4
						c-0.7-0.7-1.2-1.4-1.6-2.6c-0.5-0.9-0.7-2.6-0.7-4.5V75.7h4.9V78l-0.2,2.8c0,0.5,0,0.9,0,1.6c0,0.5,0,1.2,0,1.9v3.8
						c0,1.2,0,1.9,0.2,2.4c0.2,0.5,0.5,0.9,0.7,1.2c0.7,0.7,1.6,0.9,3.1,0.9c1.9,0,3.3-0.2,4.7-0.9c1.4-0.7,2.4-1.4,3.1-2.4
						s1.2-1.9,1.2-2.8c0-0.7-0.2-1.4-0.9-1.4c-0.7-0.2-1.4-0.2-2.4-0.2h-0.5c-2.1,0-4.2-0.5-5.9-1.2c-1.6-0.7-3.3-1.9-4.2-3.1l0.9-4
						c0.7,0.7,1.4,1.4,2.4,2.1c0.9,0.7,1.9,1.2,3.1,1.4c1.2,0.2,2.8,0.5,4.5,0.5h3.1c0.5,0,0.7,0.2,0.9,0.5s0.5,0.5,0.9,0.7
						c0.9,0.5,1.6,0.9,2.1,1.9c0.7,0.7,0.9,1.6,0.9,3.1c0,2.1-0.7,4-1.9,5.6c-1.2,1.6-3.1,2.8-5.2,3.8
						C590.9,96.8,588.5,97.3,585.7,97.3z M610.4,91.4c0,2.4-0.5,4.2-1.4,5.9c-0.9,1.6-2.1,3.1-3.5,4c-1.4,1.2-3.1,1.9-4.7,2.4
						c-1.6,0.5-3.5,0.9-5.4,1.2l-1.2-1.4c2.4,0.2,4.5,0.7,6.8,1.4c2.1,0.5,4.5,1.4,6.6,2.1c2.4,0.9,4.7,2.1,7.3,3.3l-2.1,3.8
						c-3.3-1.9-6.6-3.3-10.1-4.5c-3.5-1.2-7.1-2.1-10.6-2.8c-3.8-0.7-7.5-1.4-11.3-1.6l0.5-4.5c1.2,0.2,2.6,0.5,4,0.7
						s3.1,0.2,4.9,0.2c3.8,0,6.8-0.5,9.2-1.4c2.4-0.9,4-2.1,4.9-3.8c0.9-1.6,1.6-3.1,1.6-4.7c0-2.4-0.7-4-2.1-5.2
						c-1.4-1.2-3.3-1.9-5.9-1.9c-0.2,0-0.7,0-0.9,0c-0.2,0-0.7,0-0.9,0.2l-0.7-4.2c0.5,0,0.9,0,1.6,0c0.7,0,1.2,0,1.6,0
						c2.4,0,4.5,0.5,6.1,1.2c1.6,0.7,2.8,1.6,3.8,2.8c0.9,1.2,1.4,2.4,1.9,3.5C610.2,89.1,610.4,90.3,610.4,91.4z"/>
				</g>
				<g>
					<path class="st3" d="M705.6,71.5v39.5h-4.9c-1.2-2.6-3.1-4.9-5.2-7.1c-2.1-2.1-4.7-4-7.5-5.6c-2.8-1.4-5.9-2.4-8.9-2.8
						l-2.6-6.1c4-2.4,8.2-4.7,12.5-6.6c4.2-2.1,8.5-3.8,12.9-5.2l-1.4,2.6v-4.5h-27v-4.5h32.2V71.5z M700.6,80.9l1.2,1.9
						c-2.1,0.7-4.2,1.4-6.3,2.4c-2.1,0.9-4.5,1.9-6.6,3.1c-2.1,1.2-4.2,2.4-6.3,3.5c2.4,0.5,4.7,1.4,7.3,2.6
						c2.6,1.4,4.9,2.8,6.8,4.7c1.9,1.9,3.8,4,4.7,6.1l-0.5,0.2c0-0.9-0.2-1.9-0.2-2.8c0-0.9,0-2.1,0-3.5L700.6,80.9L700.6,80.9z
						 M725.3,71.5v4.5h-6.6v30.3h-4.9c-0.9-1.6-1.9-3.3-2.8-4.7c-1.2-1.4-2.4-2.6-3.5-3.8c-1.2-1.2-2.6-2.1-4-3.1l1.6-4
						c1.2,0.7,2.6,1.6,3.8,2.6c1.2,1.2,2.4,2.4,3.5,3.5c0.9,1.2,1.9,2.6,2.4,3.8l-0.7,0.5c0-0.9-0.2-1.9-0.2-2.8c0-0.9,0-2.1,0-3.5
						V67.2h3.3l1.4,4.2H725.3z"/>
				</g>
				<g>
					<path class="st3" d="M805.7,71.2c1.6,0,3.1,0.2,4.2,0.5c1.2,0.5,2.1,0.9,3.1,1.6c0.7,0.7,1.4,1.4,1.9,2.4
						c0.5,0.9,0.7,2.1,0.7,3.8l0.2,1.2v11.8l-0.5,0.9c0.2,0.9,0.2,1.6,0.2,2.6c0,0.9,0,1.9,0,2.6v12h-4.7c-0.2-1.2-0.9-2.4-1.4-3.1
						c-0.7-0.7-1.4-1.4-2.4-1.9c-0.9-0.5-2.1-0.7-3.3-0.7c-1.4,0-3.1,0-4.2,0.2c-1.4,0.2-2.6,0.2-4,0.5c-1.4,0.2-3.1,0.2-4.9,0.2
						c-1.4,0-3.1-0.2-4.7-0.5c-1.6-0.2-3.3-0.9-4.7-1.9c-1.4-0.9-2.6-2.1-3.5-4c-0.9-1.6-1.4-4-1.4-7.1c0-0.9,0-2.1,0.2-3.3
						c0.2-1.2,0.2-2.1,0.5-3.1l4.9,0.7c-0.2,0.7-0.2,1.4-0.5,2.4c-0.2,0.9-0.2,1.9-0.2,3.3c0,1.9,0.2,3.3,0.9,4.5
						c0.5,1.2,1.2,2.1,2.1,2.6s1.9,0.9,3.1,1.2c1.2,0.2,2.4,0.2,3.5,0.2c2.1,0,4-0.2,5.9-0.5c1.6-0.5,3.8-0.5,5.9-0.5
						c1.9,0,3.3,0.2,4.7,0.7c1.4,0.5,2.6,1.4,3.5,2.6V80.6c0-1.6,0-2.6-0.2-3.3s-0.5-1.2-0.9-1.6c-0.7-0.7-1.9-0.9-3.5-0.9
						c-1.4,0-3.1,0.2-4.2,0.9c-1.4,0.7-2.6,1.6-3.8,2.6c-1.2,0.9-1.9,2.1-2.6,3.3c-0.7,1.2-0.9,2.4-0.9,3.3c0,0.5,0,0.9,0.2,1.4
						s0.5,0.9,1.2,1.2c0.5,0.2,1.4,0.5,2.4,0.5c0.5,0,0.9,0,1.4,0c0.5,0,0.9,0,1.4-0.2l0.5,4.5c-0.5,0.2-0.9,0.2-1.6,0.5
						c-0.7,0.2-1.4,0.2-2.4,0.2c-2.1,0-4-0.7-5.4-1.9c-1.4-1.2-2.4-3.3-2.4-5.9c0-1.6,0.5-3.5,1.4-5.2c0.9-1.6,2.1-3.3,3.5-4.9
						c1.4-1.4,3.3-2.6,5.2-3.5C801.5,71.7,803.6,71.2,805.7,71.2z M825.5,100.4c-2.6,0-4.7-0.5-6.3-1.6c-1.6-1.2-3.1-2.6-4-4.2
						l-2.6-5.6l2.8-3.3c0.7,2.4,1.4,4.2,2.4,5.6c0.9,1.6,2.1,2.8,3.5,3.5c1.4,0.7,2.8,1.2,4.2,1.2c1.2,0,2.1-0.2,3.1-0.9
						c0.9-0.7,1.4-1.6,1.4-2.8c0-1.2-0.2-2.1-0.9-2.8c-0.7-0.7-1.9-1.6-3.5-2.1l3.5-2.6c0.9,0.2,1.9,0.9,2.6,1.4
						c0.7,0.5,1.6,1.4,2.1,2.6c0.7,0.9,0.9,2.4,0.9,3.8s-0.2,2.6-0.9,4c-0.7,1.2-1.6,2.1-3.1,2.8
						C829.2,100.1,827.6,100.4,825.5,100.4z M825.7,72.4c2.6,0,4.7,0.7,6.3,2.1c1.6,1.4,2.4,3.1,2.4,5.2c0,0.9-0.2,2.1-0.7,3.5
						c-0.5,1.2-1.4,2.4-2.8,3.5c-1.4,1.2-3.5,1.9-6.3,2.6l-1.2-4.2c2.4-0.2,3.8-0.9,4.7-1.9c0.9-0.9,1.4-1.9,1.4-2.8
						c0-1.2-0.5-1.9-1.2-2.6c-0.7-0.7-1.6-0.9-2.8-0.9c-1.9,0-3.8,0.7-5.4,2.1c-1.6,1.4-3.3,3.3-4.5,5.6l-0.2-6.8
						c1.6-1.6,3.3-3.1,4.9-4C821.5,72.9,823.3,72.4,825.7,72.4z"/>
				</g>
				<g>
					<path class="st3" d="M932.6,71.5v4.5h-6.6v35h-5.2c-1.4-1.9-3.1-3.5-5.2-5.2c-2.1-1.6-4.7-3.1-7.5-4.2
						c-2.8-1.2-5.9-1.9-8.9-2.1l-2.1-5.4c0.9-0.7,1.9-1.4,2.8-2.1c0.9-0.7,1.9-1.2,2.8-1.9c0.9-0.7,1.9-1.2,3.1-1.9l3.5,0.5
						c-0.5,0.2-0.9,0.2-1.4,0.2s-0.9,0-1.2,0c-2.4,0-4.5-0.2-6.1-0.9c-1.6-0.7-3.1-1.6-3.8-2.8c-0.9-1.2-1.4-2.6-1.4-4.2
						c0-1.9,0.7-3.5,1.9-4.9c1.2-1.4,3.1-2.8,5.4-4.5l4.5,2.1c-2.4,0.9-4,1.9-4.9,3.1c-0.9,1.2-1.4,2.4-1.4,3.8
						c0,1.6,0.5,2.6,1.6,3.3c1.2,0.7,2.4,0.9,3.8,0.9c0.9,0,1.9-0.2,3.1-0.5c1.2-0.2,2.4-0.9,3.8-1.9l2.8,3.8
						c-1.4,0.9-3.1,1.9-4.7,3.1c-1.6,1.2-3.3,2.1-4.9,3.3c-1.6,1.2-3.1,2.1-4.2,3.1l-0.7-1.2c4.9,0.7,8.9,1.9,12,3.8s5.9,4,8.2,6.3
						c0-0.7,0-1.4,0-2.4c0-0.7,0-1.6,0-2.4V75.9h-29.8v-4.5H932.6z"/>
				</g>
				<g>
					<path class="st3" d="M1036.8,71.5v4.5h-25.6v21.9c0,1.9,0,3.3,0.2,4c0.2,0.7,0.5,1.4,0.7,1.6c0.7,0.9,1.9,1.4,3.5,1.4
						c1.6,0,3.3-0.5,4.7-1.2c1.4-0.7,2.8-1.9,3.8-3.1c1.2-1.4,2.1-2.8,2.8-4.2s0.9-3.1,0.9-4.5c0-1.4-0.2-2.4-0.9-3.1
						c-0.7-0.7-1.9-0.9-3.3-0.9c-0.5,0-1.2,0-1.6,0.2c-0.7,0-1.2,0.2-1.6,0.2l-0.7-4.5c0.7-0.2,1.6-0.5,2.6-0.5
						c0.9-0.2,1.9-0.2,2.8-0.2c1.6,0,3.1,0.2,4.2,0.9c1.2,0.7,2.1,1.4,2.8,2.8s0.9,2.8,0.9,4.9c0,2.6-0.7,4.9-1.9,7.3
						c-1.2,2.4-2.8,4.2-4.7,5.9c-1.6,1.4-3.3,2.4-5.2,3.3c-1.9,0.9-3.8,1.2-6.1,1.2c-1.6,0-2.8-0.2-4-0.7s-2.1-0.9-2.8-1.9
						c-0.7-0.7-1.2-1.9-1.6-2.8c-0.5-1.2-0.7-2.8-0.7-5.2V76.2h-6.6v-4.5h37.4V71.5z M1017.9,120.6c-1.2,0-1.9-0.2-2.6-0.9
						c-0.7-0.7-1.2-1.6-1.2-2.6c0-1.2,0.5-2.1,1.2-2.8c0.7-0.7,1.6-1.2,2.6-1.2s1.9,0.5,2.6,1.2c0.7,0.7,1.2,1.6,1.2,2.8
						c0,1.2-0.5,1.9-1.2,2.6C1019.8,120.3,1018.9,120.6,1017.9,120.6z"/>
				</g>
				<g>
					<path class="st3" d="M486.1,110.9c-2.6,0-4.9-0.5-6.8-1.4c-2.1-0.9-3.8-2.1-5.4-3.8c-1.4-1.6-2.6-3.5-3.3-5.4l1.4-4.9
						c3.5-0.2,6.1-1.2,8-2.4c1.9-1.2,3.1-2.6,4-4.5c0.7-1.9,1.2-3.8,1.2-6.1c0-0.9,0-2.1-0.2-3.3c-0.2-1.2-0.5-2.4-0.9-3.3h-16v-4.5
						h13.4c-1.4-1.9-2.4-3.5-3.3-5.2c-0.9-1.6-1.2-3.1-1.2-4.7c0-1.9,0.5-3.3,1.4-4.9c0.9-1.4,2.4-2.8,4.2-4.2l3.3,3.5
						c-1.4,1.2-2.4,2.1-3.1,3.1c-0.7,0.9-0.9,1.9-0.9,3.3s0.5,2.6,1.4,4c0.9,1.4,2.1,3.1,3.8,4.9h19.7v4.5h-11.3c-0.7,0-1.4,0-2.1,0
						c-0.7,0-1.2,0-1.9,0c3.1,3.1,5.6,6.1,7.5,9.4c1.9,3.1,2.8,6.6,2.8,10.6c0,3.1-0.7,5.6-1.9,8c-1.2,2.4-3.1,4-5.4,5.4
						C492.4,110.5,489.6,110.9,486.1,110.9z M486.1,106.2c2.4,0,4.5-0.5,6.1-1.4c1.6-0.9,2.8-2.4,3.5-4c0.7-1.6,1.2-3.3,1.2-5.2
						s-0.2-3.8-0.9-5.6c-0.7-1.9-1.6-3.8-3.1-5.9s-3.3-4.5-5.9-6.8l0.9,0.2c0.5,1.2,0.7,2.4,1.2,3.8c0.2,1.2,0.5,2.6,0.5,4.2
						c0,1.6-0.2,3.1-0.7,4.7c-0.5,1.6-1.2,3.1-2.4,4.2c-1.2,1.4-2.8,2.6-4.7,3.5s-4.7,1.9-7.8,2.6l0.9-3.8c0.5,2.4,1.2,4,2.4,5.6
						c1.2,1.6,2.6,2.6,4.2,3.3C482.8,106,484.4,106.2,486.1,106.2z"/>
				</g>
				<g>
					<path class="st3" d="M408,71.5v4.5h-45.6l-0.9-0.5c1.9,0.5,3.5,1.2,5.4,2.1c1.9,0.9,3.5,1.9,4.9,3.1c1.4,1.2,2.8,2.1,3.8,3.1
						l0.2,3.5c-1.4,0.7-3.1,1.4-4.7,2.1c-1.6,0.7-3.3,1.6-4.9,2.4c-1.6,0.7-2.8,1.6-4,2.4l-0.7-1.2c3.3,0.7,6.1,1.6,8.7,2.6
						c2.6,1.2,4.7,2.4,6.8,3.8c1.9,1.4,4,3.3,5.6,5.2c0-0.7,0-1.4,0-2.1c0-0.7,0-1.6,0-2.4V78.3h0.9c2.4,0,4.5,0.2,6.8,0.5
						c2.1,0.5,4.2,0.9,6.1,1.9s3.5,2.1,4.9,3.5c0.9,1.2,1.9,2.4,2.4,3.5c0.7,1.4,0.9,2.8,0.9,4.5c0,1.4-0.2,2.8-0.9,4
						c-0.5,1.2-1.4,2.4-2.8,3.1c-1.2,0.7-3.1,1.2-5.2,1.2c-0.7,0-1.2,0-1.9,0c-0.7,0-1.2-0.2-1.9-0.2l0.2-4.5c0.2,0,0.5,0,0.9,0
						c0.5,0,0.7,0,1.2,0c2.1,0,3.5-0.5,4-1.2c0.7-0.7,0.9-1.6,0.9-2.8c0-2.1-1.2-4-3.3-5.6c-2.1-1.6-5.2-2.6-8.9-3.1v27.5h-4.9
						c-1.6-2.4-3.8-4.5-5.6-6.1c-2.1-1.9-4.5-3.3-7.3-4.5s-6.1-2.1-9.9-2.8l-2.4-5.9c1.4-0.9,2.6-1.6,4.2-2.6
						c1.4-0.7,2.8-1.6,4.5-2.4c1.4-0.7,3.1-1.4,4.5-2.1c-1.6-1.2-3.5-2.4-5.6-3.3c-2.1-0.9-4.5-1.6-7.3-2.4l1.9-4.2l0.2,1.2h-5.9V71
						H408V71.5z"/>
				</g>
				<g>
					<path class="st3" d="M293.1,71.5v4.5h-25.6v21.9c0,1.9,0,3.3,0.2,4c0.2,0.7,0.5,1.4,0.7,1.6c0.7,0.9,1.9,1.4,3.5,1.4
						s3.3-0.5,4.7-1.2c1.4-0.7,2.8-1.9,3.8-3.1c1.2-1.4,2.1-2.8,2.8-4.2s0.9-3.1,0.9-4.5c0-1.4-0.2-2.4-0.9-3.1
						c-0.7-0.7-1.9-0.9-3.3-0.9c-0.5,0-1.2,0-1.6,0.2c-0.7,0-1.2,0.2-1.6,0.2l-0.7-4.5c0.7-0.2,1.6-0.5,2.6-0.5
						c0.9-0.2,1.9-0.2,2.8-0.2c1.6,0,3.1,0.2,4.2,0.9c1.2,0.7,2.1,1.4,2.8,2.8c0.7,1.4,0.9,2.8,0.9,4.9c0,2.6-0.7,4.9-1.9,7.3
						c-1.2,2.4-2.8,4.2-4.7,5.9c-1.6,1.4-3.3,2.4-5.2,3.3s-3.8,1.2-6.1,1.2c-1.6,0-2.8-0.2-4-0.7c-1.2-0.5-2.1-0.9-2.8-1.9
						c-0.7-0.7-1.2-1.9-1.6-2.8c-0.5-1.2-0.7-2.8-0.7-5.2V76.2h-6.6v-4.5h37.4V71.5z"/>
				</g>
				<g>
					<path class="st3" d="M189,71.5v4.5h-6.6v35h-4.9c-1.9-2.4-3.8-4.5-5.9-6.3s-4.7-3.3-7.5-4.5c-2.8-1.2-6.1-2.1-10.1-2.6
						l-2.4-5.9c1.4-0.9,2.6-1.6,4.2-2.6c1.4-0.7,2.8-1.6,4.5-2.4c1.4-0.7,3.1-1.4,4.5-2.1c-1.6-1.2-3.5-2.4-5.6-3.3
						c-2.1-0.9-4.5-1.6-7.3-2.4l1.9-4.2l0.2,1.2h-5.9v-4.5C148.1,71.5,189,71.5,189,71.5z M177.2,75.9H157l-1.4-0.5
						c1.9,0.5,3.5,1.2,5.4,2.1s3.5,1.9,4.9,3.1c1.4,1.2,2.8,2.1,3.8,3.1l0.2,3.5c-1.4,0.7-3.1,1.4-4.7,2.1c-1.6,0.7-3.3,1.6-4.9,2.4
						c-1.6,0.7-2.8,1.6-4,2.4l-0.7-0.9c3.5,0.5,6.8,1.4,9.6,2.6c2.8,1.2,5.2,2.6,7.3,4.2s4,3.5,5.9,5.6l-0.9,0.2
						c0-0.9,0-1.9-0.2-2.8c0-0.9,0-2.1,0-3.1V75.9z M159.8,111.4c-1.2,0-1.9-0.2-2.6-0.9c-0.7-0.7-1.2-1.6-1.2-2.6
						c0-1.2,0.5-2.1,1.2-2.8c0.7-0.7,1.6-1.2,2.6-1.2s1.9,0.5,2.6,1.2c0.7,0.7,1.2,1.6,1.2,2.8c0,1.2-0.5,1.9-1.2,2.6
						C161.9,110.9,161,111.4,159.8,111.4z"/>
				</g>
				<g>
					<path class="st3" d="M55.9,91c2.6,1.6,5.2,3.5,7.5,5.6s4.5,4.7,6.6,7.1c2.1,2.4,3.5,5.2,4.9,7.5l-4.2,2.1
						c-1.6-2.6-3.5-5.2-5.2-7.3c-1.6-2.1-3.5-4.2-5.6-5.9c-2.1-1.9-4.5-3.5-7.3-5.4L55.9,91z M53.1,80.1c0-1.6,0.5-3.3,1.2-4.5
						c0.7-1.2,1.9-2.4,3.3-3.1c1.4-0.7,2.8-1.2,4.5-1.2c1.6,0,3.3,0.5,4.5,1.2c1.4,0.7,2.4,1.6,3.3,3.1c0.7,1.2,1.2,2.8,1.2,4.5
						c0,1.6-0.5,3.3-1.2,4.5c-0.7,1.4-1.9,2.4-3.3,3.1c-1.4,0.7-2.8,1.2-4.5,1.2c-1.6,0-3.3-0.5-4.5-1.2c-1.2-0.7-2.4-1.6-3.3-3.1
						S53.1,82,53.1,80.1z M57.6,80.1c0,1.4,0.5,2.6,1.4,3.3s1.9,1.2,3.3,1.2s2.4-0.5,3.3-1.2c0.9-0.9,1.2-1.9,1.2-3.3
						c0-1.4-0.5-2.6-1.2-3.3c-0.7-0.7-1.9-1.2-3.3-1.2s-2.4,0.5-3.3,1.2C58.1,77.8,57.6,78.7,57.6,80.1z"/>
				</g>
			</g>
			<g>
				<path class="st2" d="M142.7,301.6H87.9c-10.6,0-19-8.5-19-19v-82.7c0-10.6,8.5-19,19-19h54.8c10.6,0,19,8.5,19,19v82.7
					C161.7,293.1,153.2,301.6,142.7,301.6z"/>
				<path class="st2" d="M248.9,301.6h-54.8c-10.6,0-19-8.5-19-19v-82.7c0-10.6,8.5-19,19-19h54.8c10.6,0,19,8.5,19,19v82.7
					C267.9,293.1,259.5,301.6,248.9,301.6z"/>
				<path class="st2" d="M355.1,301.6h-54.8c-10.6,0-19-8.5-19-19v-82.7c0-10.6,8.5-19,19-19h54.8c10.6,0,19,8.5,19,19v82.7
					C374.2,293.1,365.5,301.6,355.1,301.6z"/>
				<path class="st2" d="M461.4,301.6h-54.8c-10.6,0-19-8.5-19-19v-82.7c0-10.6,8.5-19,19-19h54.8c10.6,0,19,8.5,19,19v82.7
					C480.4,293.1,471.7,301.6,461.4,301.6z"/>
				<path class="st2" d="M567.6,301.6h-54.8c-10.6,0-19-8.5-19-19v-82.7c0-10.6,8.5-19,19-19h54.8c10.6,0,19,8.5,19,19v82.7
					C586.4,293.1,578,301.6,567.6,301.6z"/>
				<path class="st2" d="M673.9,301.6h-54.8c-10.6,0-19-8.5-19-19v-82.7c0-10.6,8.5-19,19-19h54.8c10.6,0,19,8.5,19,19v82.7
					C692.7,293.1,684.2,301.6,673.9,301.6z"/>
				<path class="st2" d="M779.9,301.6h-54.8c-10.6,0-19-8.5-19-19v-82.7c0-10.6,8.5-19,19-19h54.8c10.6,0,19,8.5,19,19v82.7
					C798.9,293.1,790.4,301.6,779.9,301.6z"/>
				<path class="st2" d="M886.1,301.6h-54.8c-10.6,0-19-8.5-19-19v-82.7c0-10.6,8.5-19,19-19h54.8c10.6,0,19,8.5,19,19v82.7
					C905.1,293.1,896.7,301.6,886.1,301.6z"/>
				<path class="st2" d="M992.3,301.6h-54.8c-10.6,0-19-8.5-19-19v-82.7c0-10.6,8.5-19,19-19h54.8c10.6,0,19,8.5,19,19v82.7
					C1011.4,293.1,1002.9,301.6,992.3,301.6z"/>
				<g>
					<path class="st3" d="M552.1,213.2c-0.2,2.1-0.7,4-1.4,5.6c-0.9,1.6-2.1,3.1-3.5,4c-1.6,0.9-3.5,1.4-5.9,1.4
						c-2.4,0-4.5-0.5-6.1-1.4s-2.8-2.4-3.8-4c-0.9-1.6-1.4-3.5-1.6-5.6l4.5-0.5c0.2,2.4,0.9,4.2,1.9,5.4c0.9,1.4,2.6,2.1,4.9,2.1
						c2.1,0,3.8-0.7,4.9-1.9c1.2-1.2,1.6-3.1,1.9-5.6L552.1,213.2z M543.9,215.3c0,0.9-0.2,1.4-0.7,1.9c-0.5,0.5-1.2,0.7-2.1,0.7
						s-1.6-0.2-2.1-0.7c-0.5-0.5-0.7-1.2-0.7-2.1c0-0.7,0.2-1.2,0.7-1.9c0.5-0.5,1.2-0.7,2.1-0.7s1.6,0.2,2.1,0.7
						C543.6,213.6,543.9,214.4,543.9,215.3z"/>
				</g>
				<g>
					<path class="st3" d="M669.9,221.4v4.5h-47v-4.5H669.9z M650.4,258.1c-2.8,0-5.4-0.5-7.8-1.4s-4.7-2.4-6.8-4.5
						c-2.1-2.1-4-4.9-5.6-8.2c-1.6-3.3-3.3-7.8-4.7-12.7l4.9-1.2c1.4,5.6,3.3,10.1,5.2,13.4s4,5.9,6.6,7.5s5.2,2.4,8.2,2.4
						c2.4,0,4.2-0.5,5.6-1.2c1.6-0.7,2.8-1.9,3.8-3.3c0.9-1.4,1.2-3.1,1.2-4.9c0-1.2-0.2-2.4-0.5-3.5c-0.2-0.9-0.7-1.9-0.9-2.8
						c-0.5-0.9-0.9-1.6-1.4-2.1l3.1-4.9c1.6,2.4,2.8,4.7,3.5,6.8s1.2,4.5,1.2,6.6c0,2.6-0.7,5.2-1.9,7.3c-1.2,2.1-2.8,3.8-5.2,5.2
						C656.5,257.4,653.6,258.1,650.4,258.1z M647.8,242.8c-2.6,0-4.7-0.7-6.3-2.1c-1.4-1.4-2.4-3.1-2.4-5.4c0-0.9,0.2-1.9,0.5-2.8
						c0.2-0.9,0.7-1.9,0.9-2.4l5.2,1.4c-0.2,0.5-0.5,0.9-0.9,1.6c-0.2,0.7-0.5,1.2-0.5,1.9c0,1.2,0.2,1.9,0.9,2.6
						c0.7,0.5,1.4,0.7,2.6,0.7c0.9,0,1.9-0.2,2.6-0.5c0.7-0.2,1.9-0.9,2.8-2.1c0.9-0.9,2.1-2.6,3.3-4.5l4-0.7l-0.5,3.5
						c-1.2,1.9-2.4,3.5-3.5,4.7c-1.2,1.2-2.6,2.4-4,3.1C651.1,242.6,649.6,242.8,647.8,242.8z"/>
				</g>
				<g>
					<path class="st3" d="M742,233.6c-2.6,0-4.7-0.7-6.1-2.1c-1.4-1.4-2.4-3.1-2.4-5.4c0-0.9,0.2-1.9,0.5-2.8s0.7-1.6,0.9-2.4
						l4.9,1.4c-0.2,0.5-0.5,0.9-0.7,1.6c-0.2,0.7-0.2,1.2-0.2,1.9c0,1.2,0.2,1.9,0.9,2.4c0.7,0.5,1.4,0.7,2.4,0.7s1.6-0.2,2.6-0.5
						c0.9-0.2,1.9-0.9,2.8-2.1c0.9-0.9,1.9-2.6,3.1-4.5l3.5-0.9l0.2,3.1c-0.9,1.9-1.9,3.5-3.1,4.9c-1.2,1.4-2.6,2.4-4,3.3
						C745.5,233.2,743.9,233.6,742,233.6z M775.2,221.4v4.5h-6.6v35h-4.9c-1.2-1.6-2.6-3.3-4-4.9c-1.4-1.6-3.3-3.1-5.2-4.5
						c-1.9-1.4-4-2.6-6.1-3.5c-2.1-0.9-4.7-1.6-7.5-2.1l-1.4-5.9l3.1,2.1c4,0.7,7.3,1.6,10.1,3.1c2.8,1.4,4.9,2.8,6.8,4.7
						c1.9,1.6,3.3,3.3,4.5,4.9c0-0.9,0-1.9,0-2.8c0-0.9,0-2.1,0-3.1v-31.7h3.3l1.4,4.2C768.6,221.4,775.2,221.4,775.2,221.4z
						 M758.9,231c0,2.4-0.7,4.5-2.1,6.3c-1.4,1.6-3.1,3.1-5.4,4c-2.4,0.9-4.9,1.6-7.8,2.1l-3.1-0.5l-1.2-2.8
						c3.5-0.2,6.3-0.7,8.5-1.4c2.1-0.7,3.8-1.6,4.9-2.8c0.9-1.2,1.6-2.6,1.6-4.2c0-1.4-0.2-2.6-0.9-3.5c-0.7-1.2-1.6-2.1-2.8-3.1
						l3.5-3.5c1.4,1.4,2.6,2.8,3.5,4.5C758.5,227.3,758.9,229.2,758.9,231z"/>
				</g>
				<g>
					<path class="st3" d="M851.8,221.2c2.6,0,4.9,0.5,6.6,1.4c1.9,0.9,3.1,2.1,4,3.8c0.9,1.6,1.4,3.3,1.4,5.2c0,3.3-1.4,5.9-4,8
						c-2.6,2.1-6.6,3.3-11.3,4l-3.1-0.7l-1.2-2.8c3.5-0.2,6.3-0.7,8.5-1.6c2.1-0.9,3.5-1.9,4.5-3.1c0.9-1.2,1.4-2.6,1.4-4
						c0-1.9-0.7-3.3-1.9-4.2c-1.2-0.9-2.8-1.4-5.2-1.4c-2.1,0-3.5,0.5-4.5,1.2c-0.9,0.9-1.4,1.6-1.4,2.6c0,0.7,0.2,1.2,0.5,1.6
						c0.2,0.5,0.9,0.9,1.6,1.4l-2.8,4c-0.7-0.5-1.6-1.2-2.1-1.9c-0.7-0.7-1.2-1.4-1.6-2.4s-0.5-1.9-0.5-3.1c0-1.4,0.5-2.8,1.2-4
						c0.9-1.2,2.1-2.1,3.8-3.1C847.3,221.6,849.4,221.2,851.8,221.2z M880,221.4v4.5h-6.6v35h-4.9c-1.6-2.4-3.5-4.5-5.6-6.6
						c-2.1-2.1-4.7-3.8-7.5-5.4c-2.8-1.4-5.9-2.6-9.4-3.3l-1.4-5.9l3.3,2.1c3.5,0.7,6.6,1.6,9.4,3.1c2.6,1.4,4.9,2.8,7.1,4.5
						c1.9,1.6,3.5,3.3,4.7,5.2c0-0.9,0-1.9,0-2.8c0-0.9,0-2.1,0-3.1v-31.5h3.3l1.4,4.2C873.6,221.4,880,221.4,880,221.4z"/>
				</g>
				<g>
					<path class="st3" d="M984.6,221.4v4.5H978v35h-4.9c-1.2-2.6-3.1-4.9-5.2-7.1c-2.1-2.1-4.7-4-7.8-5.4c-2.8-1.4-5.9-2.6-9.2-3.1
						l-2.6-6.1c4-2.4,8.2-4.7,12.7-6.6c4.2-1.9,8.7-3.8,13.4-5.2l-1.4,2.6v-8.9h11.5V221.4z M961.3,220.9c0.5,0,0.9,0,1.6,0
						c0.7,0,1.2,0.2,1.6,0.2l-0.5,4.5c-0.2,0-0.5,0-0.9,0c-0.5,0-0.7,0-1.4,0c-1.2,0-2.4,0.2-3.1,0.7s-0.9,1.2-0.9,2.1
						c0,1.2,0.5,2.1,1.4,2.8c0.9,0.7,2.8,1.6,5.2,2.6l-3.8,2.8c-1.6-0.7-3.1-1.6-4.2-2.6c-1.2-0.9-2.1-1.9-2.8-3.1
						c-0.7-1.2-0.9-2.4-0.9-3.8c0-1.2,0.2-2.1,0.9-3.3c0.7-0.9,1.4-1.9,2.8-2.6C957.8,221.2,959.4,220.9,961.3,220.9z M973.1,230.8
						l1.4,1.9c-3.3,1.2-6.6,2.4-10.1,4c-3.5,1.6-6.8,3.3-9.9,5.2c2.4,0.5,4.7,1.4,7.3,2.6c2.6,1.2,4.9,2.8,7.3,4.7s4,4,5.2,6.6h-0.5
						c0-0.9-0.2-1.9-0.2-2.8c0-0.9,0-2.1,0-3.5v-18.6H973.1z"/>
				</g>
				<g>
					<path class="st3" d="M462.8,221.4v4.5h-6.6v35h-4.9c-1.2-2.6-2.8-4.7-4.5-6.6c-1.9-1.9-3.8-3.5-5.9-4.9l1.6-4.2
						c1.6,0.9,3.3,2.1,4.9,3.8c1.6,1.6,3.1,3.3,4,4.9c0-0.7,0-1.2,0-1.9c0-0.5,0-1.2,0-1.6c0-0.7,0-1.2,0-1.9v-22.6h-46.3v-4.5
						C405.2,221.4,462.8,221.4,462.8,221.4z M429.4,255c-2.8,0-5.6-0.7-8.2-2.1c-2.6-1.4-5.2-3.8-7.3-6.8c-2.4-3.3-4.5-7.8-6.3-13.4
						l4.7-1.4c1.4,4.5,3.1,8,4.7,10.8s3.5,4.9,5.6,6.1s4.5,1.9,7.1,1.9c2.4,0,4.2-0.5,5.6-1.2c1.4-0.7,2.4-1.6,3.1-3.1
						c0.7-1.2,0.9-2.8,0.9-4.2c0-2.4-0.7-4.5-2.1-5.9c-1.4-1.4-3.1-2.4-4.9-2.4c-1.4,0-2.4,0.2-3.1,0.9c-0.7,0.7-1.2,1.6-1.2,2.8
						c0,0.2,0,0.7,0.2,1.2c0.2,0.5,0.2,0.9,0.5,1.4l-4.9,0.9c-0.2-0.9-0.5-1.6-0.7-2.4c-0.2-0.7-0.2-1.4-0.2-2.1
						c0-1.6,0.5-2.8,1.4-4c0.9-0.9,1.9-1.9,3.3-2.4c1.4-0.5,2.8-0.7,4.2-0.7c2.6,0,4.7,0.5,6.6,1.6c1.9,1.2,3.3,2.6,4.2,4.7
						c0.9,1.9,1.4,4.2,1.4,6.8c0,2.4-0.5,4.5-1.6,6.3s-2.6,3.5-4.9,4.7C435.1,254.5,432.7,255,429.4,255z M427.3,231.3
						c-0.2-1.4-0.9-2.6-1.9-3.5c-0.9-0.9-2.6-1.9-4.5-2.1l1.4-2.8l2.8,0.7c2.4,0.9,4.2,1.9,5.2,3.3c0.9,1.4,1.6,2.6,1.9,4.5
						L427.3,231.3z"/>
				</g>
				<g>
					<path class="st3" d="M350.9,225.9h-6.6v35h-4.9v-35h-6.6v-4.5h6.6c-0.2-2.8-0.9-5.2-2.1-6.8c-1.2-1.9-2.8-3.3-4.9-4.5
						c-2.1-1.2-4.2-1.9-6.8-2.4c-2.6-0.5-5.2-0.7-8-0.7c-2.6,0-4.7,0.2-6.3,0.5c-1.9,0.2-3.3,0.7-4.2,1.2c-0.9,0.5-1.4,1.2-1.4,1.9
						s0.5,1.4,1.4,1.4c0.9,0.2,2.1,0.2,3.3,0.2h6.1c2.4,0,4,0.2,5.4,0.5c1.4,0.5,2.4,0.9,3.3,1.9c0.7,0.7,1.4,1.6,1.6,2.8
						c0.2,1.2,0.5,2.6,0.5,4.2h-4.2c0-0.9-0.2-1.9-0.5-2.6c-0.2-0.7-0.5-1.2-0.9-1.4c-0.5-0.2-0.9-0.5-1.6-0.7
						c-0.7-0.2-1.4-0.2-2.6-0.2H311c-1.6,0-3.3,0-4.5-0.2c-1.4-0.2-2.4-0.5-3.3-0.9c-1.2-0.7-1.9-1.4-2.1-2.1
						c-0.5-0.9-0.7-1.6-0.7-2.6c0-2.4,1.4-4.5,4.2-5.9c2.8-1.4,7.1-2.1,12.5-2.1c8.7,0,15.3,1.4,19.7,4.5c4.5,3.1,7.1,7.8,7.5,14.1
						h6.6L350.9,225.9L350.9,225.9z"/>
				</g>
				<g>
					<path class="st3" d="M219.5,262.1c-1.2,0-2.6-0.2-3.8-0.7c-1.2-0.5-2.4-1.2-3.3-2.1c-0.9-0.9-1.2-2.4-1.2-3.8
						c0-2.1,0.9-3.8,2.6-4.7s3.8-1.6,6.1-1.6v-2.8h4.9v4l-2.1,2.8c-0.2,0-0.7,0-0.9,0c-0.5,0-0.9,0-1.4,0c-1.4,0-2.6,0.2-3.3,0.7
						c-0.7,0.5-1.2,1.2-1.2,1.9c0,0.7,0.2,1.4,0.9,1.9c0.7,0.5,1.4,0.7,2.6,0.7c1.9,0,3.3-0.5,4.9-1.2c1.4-0.9,2.8-2.1,4.2-3.5
						c1.9,0.9,4,1.9,6.3,3.3c2.4,1.4,4.5,2.8,6.3,4l-2.6,3.3c-1.6-1.2-3.1-2.4-4.7-3.3s-3.1-1.6-4.2-2.4c-0.9,0.7-1.9,1.4-2.8,1.9
						c-0.9,0.5-2.1,0.9-3.3,1.2C222.3,261.8,220.9,262.1,219.5,262.1z"/>
				</g>
				<g>
					<path class="st3" d="M106.2,229.9c0-1.6,0.5-3.3,1.2-4.5c0.7-1.2,1.9-2.4,3.3-3.1c1.4-0.7,2.8-1.2,4.5-1.2
						c1.6,0,3.3,0.5,4.5,1.2c1.4,0.7,2.4,1.6,3.3,3.1c0.7,1.2,1.2,2.8,1.2,4.5c0,1.6-0.5,3.3-1.2,4.5c-0.7,1.4-1.9,2.4-3.3,3.1
						c-1.4,0.7-2.8,1.2-4.5,1.2c-1.6,0-3.3-0.5-4.5-1.2s-2.4-1.6-3.3-3.1S106.2,231.7,106.2,229.9z M106.2,252.2
						c0-1.6,0.5-3.3,1.2-4.5c0.7-1.2,1.9-2.4,3.3-3.1c1.4-0.7,2.8-1.2,4.5-1.2c1.6,0,3.3,0.2,4.5,0.9c1.2,0.7,2.4,1.6,3.3,3.1
						c0.7,1.2,1.2,2.8,1.2,4.7c0,1.6-0.5,3.3-1.2,4.5c-0.7,1.4-1.9,2.4-3.3,3.1c-1.4,0.7-2.8,1.2-4.5,1.2c-1.6,0-3.3-0.5-4.5-1.2
						c-1.4-0.7-2.4-1.6-3.3-3.1S106.2,253.8,106.2,252.2z M110.7,229.9c0,1.4,0.5,2.6,1.4,3.3c0.9,0.7,1.9,1.2,3.3,1.2
						c1.4,0,2.4-0.5,3.3-1.2c0.9-0.9,1.2-1.9,1.2-3.3c0-1.4-0.5-2.4-1.2-3.3c-0.9-0.9-1.9-1.2-3.3-1.2c-1.4,0-2.4,0.5-3.3,1.2
						C111.2,227.5,110.7,228.7,110.7,229.9z M110.7,252.2c0,1.4,0.5,2.6,1.4,3.3c0.9,0.9,1.9,1.2,3.3,1.2c1.4,0,2.4-0.5,3.3-1.2
						c0.9-0.9,1.2-1.9,1.2-3.3c0-1.4-0.5-2.6-1.2-3.3c-0.7-0.7-1.9-1.2-3.3-1.2c-1.4,0-2.4,0.5-3.3,1.2
						C111.2,249.6,110.7,250.8,110.7,252.2z"/>
				</g>
			</g>
			<path class="st4" d="M142.7,451.5H34.8c-10.6,0-19-8.5-19-19v-82.7c0-10.6,8.5-19,19-19h107.9c10.6,0,19,8.5,19,19v82.7
				C161.7,443,153.2,451.5,142.7,451.5z"/>
			<g>
				<path class="st2" d="M248.9,451.5h-54.8c-10.6,0-19-8.5-19-19v-82.7c0-10.6,8.5-19,19-19h54.8c10.6,0,19,8.5,19,19v82.7
					C267.9,443,259.5,451.5,248.9,451.5z"/>
				<path class="st2" d="M355.1,451.5h-54.8c-10.6,0-19-8.5-19-19v-82.7c0-10.6,8.5-19,19-19h54.8c10.6,0,19,8.5,19,19v82.7
					C374.2,443,365.5,451.5,355.1,451.5z"/>
				<path class="st2" d="M461.4,451.5h-54.8c-10.6,0-19-8.5-19-19v-82.7c0-10.6,8.5-19,19-19h54.8c10.6,0,19,8.5,19,19v82.7
					C480.4,443,471.7,451.5,461.4,451.5z"/>
				<path class="st2" d="M567.6,451.5h-54.8c-10.6,0-19-8.5-19-19v-82.7c0-10.6,8.5-19,19-19h54.8c10.6,0,19,8.5,19,19v82.7
					C586.4,443,578,451.5,567.6,451.5z"/>
				<path class="st2" d="M673.9,451.5h-54.8c-10.6,0-19-8.5-19-19v-82.7c0-10.6,8.5-19,19-19h54.8c10.6,0,19,8.5,19,19v82.7
					C692.7,443,684.2,451.5,673.9,451.5z"/>
				<path class="st2" d="M779.9,451.5h-54.8c-10.6,0-19-8.5-19-19v-82.7c0-10.6,8.5-19,19-19h54.8c10.6,0,19,8.5,19,19v82.7
					C798.9,443,790.4,451.5,779.9,451.5z"/>
				<path class="st2" d="M886.1,451.5h-54.8c-10.6,0-19-8.5-19-19v-82.7c0-10.6,8.5-19,19-19h54.8c10.6,0,19,8.5,19,19v82.7
					C905.1,443,896.7,451.5,886.1,451.5z"/>
				<g>
					<path class="st3" d="M563.9,371.1v4.5h-6.6v35h-4.9v-21.2l0.5,1.6c-0.9-1.4-1.9-2.4-3.1-3.3c-0.9-0.7-2.1-1.2-3.3-1.2
						c-0.7,0-1.2,0-1.9,0.2c-0.7,0.2-1.2,0.7-1.6,1.4c-0.5,0.7-0.7,1.6-0.7,2.8c0,0.5,0,0.9,0,1.2c0,0.5,0,0.7,0,0.9l-4.2,0.2
						c-0.2-1.6-0.7-3.3-1.4-4.5c-0.7-1.2-1.6-2.1-2.8-2.8c-1.2-0.7-2.4-0.9-3.5-0.9c-1.2,0-2.1,0.2-2.8,0.7s-1.4,0.9-1.9,1.9
						c-0.5,0.7-0.7,1.6-0.7,2.6c0,1.6,0.7,3.1,1.9,4.2c1.2,1.2,3.1,2.1,5.4,3.1l-1.6,4.7c-2.1-0.7-3.8-1.4-5.4-2.6
						c-1.6-1.2-2.8-2.4-3.8-4c-0.9-1.6-1.4-3.5-1.4-5.6c0-1.9,0.5-3.5,1.4-4.9c0.9-1.4,2.1-2.4,3.8-3.3c1.6-0.7,3.3-1.2,5.2-1.2
						c2.4,0,4.2,0.5,5.9,1.2c1.6,0.9,3.1,2.1,4.5,4h-0.9c0.5-1.4,1.2-2.4,2.4-3.3c1.2-0.7,2.4-1.2,3.8-1.2c1.4,0,2.8,0.2,4,0.9
						c1.2,0.7,2.4,1.4,3.5,2.6l-0.5,0.9c0-0.9,0-1.9-0.2-2.6c0-0.9,0-1.9,0-2.8v-5.4h-36.2v-4.5h47.5V371.1z"/>
				</g>
				<g>
					<path class="st3" d="M660,371.1v4.5h-6.6v35h-4.9v-27l1.2,4c-1.9-2.8-3.8-5.2-5.4-7.1c-1.6-1.9-3.5-3.1-5.2-4
						c-1.6-0.9-3.3-1.4-4.9-1.4c-1.4,0-2.4,0.2-3.3,0.7s-1.6,1.2-2.1,2.1c-0.5,0.9-0.7,1.9-0.7,3.1c0,1.4,0.2,2.6,0.9,3.5
						c0.7,0.9,1.6,1.6,3.1,2.1c1.4,0.5,3.3,0.9,5.6,1.2l-0.5,5.2c-2.8-0.2-5.2-0.9-7.5-1.9c-2.1-0.9-4-2.4-5.2-4s-1.9-3.8-1.9-6.3
						c0-2.4,0.5-4.2,1.4-5.9c0.9-1.6,2.4-2.8,4-3.5c1.6-0.7,3.5-1.2,5.4-1.2c2.1,0,4.2,0.5,6.1,1.2c1.9,0.7,3.5,1.9,5.2,3.3
						c1.6,1.4,3.5,3.3,5.2,5.4l-0.9-0.2c-0.2-0.7-0.2-1.6-0.2-2.8c0-1.2,0-2.4,0-3.3v-7.1h3.3l1.4,4.2h6.6V371.1z"/>
				</g>
				<g>
					<path class="st3" d="M773.3,371.1v4.5h-6.6v35h-4.9c-2.1-2.4-4.2-4.5-6.3-6.3s-4.7-3.3-7.5-4.5c-2.8-1.2-6.1-2.1-10.1-2.6
						l-2.4-5.9c2.1-1.4,4.5-2.6,6.8-4c2.6-1.4,5.2-2.6,7.8-3.8l3.8-0.5l0.2,3.5c-2.1,0.9-4.2,1.9-6.6,3.1c-2.4,1.2-4.2,2.4-6.1,3.3
						c3.1,0.7,5.9,1.4,8.2,2.6c2.4,1.2,4.7,2.4,6.6,3.8c1.9,1.4,3.8,3.1,5.4,4.9c0-0.7,0-1.4,0-2.1c0-0.7,0-1.6,0-2.4v-8.9l0.2-1.4
						c0-0.9,0-2.1-0.2-3.1s0-2.1,0-3.3v-7.5h-29.8v-4.5L773.3,371.1L773.3,371.1z M737.3,374.7l2.6,0.9c2.6,0.7,5.2,1.6,8,3.1
						c2.6,1.2,5.2,2.8,7.8,4.5c2.6,1.6,4.7,3.5,6.6,5.2v5.9c-1.6-1.9-3.5-3.5-5.6-5.2c-2.1-1.6-4.2-3.1-6.6-4.5
						c-2.4-1.4-4.7-2.6-7.3-3.5s-4.9-1.6-7.1-2.1L737.3,374.7z"/>
				</g>
				<g>
					<path class="st3" d="M842.1,370.7c1.9,0,3.5,0.5,4.9,1.2c1.6,0.7,2.8,1.9,4,3.5c0.9,1.6,1.4,3.5,1.4,6.1c0,1.6-0.5,3.3-1.2,4.9
						c-0.9,1.6-2.1,2.8-4,3.8c-1.9,0.9-4,1.4-6.8,1.4l-0.5-4.9c2.1,0,3.8-0.2,5.2-0.9c1.2-0.5,2.1-1.4,2.6-2.1s0.7-1.9,0.7-2.6
						c0-1.6-0.5-3.1-1.6-4c-1.2-0.9-2.8-1.4-4.9-1.4c-0.7,0-1.4,0-2.4,0.2c-0.7,0-1.6,0.2-2.6,0.5l-0.5-4.7c0.9-0.2,2.1-0.5,2.8-0.5
						C840.3,370.7,841.2,370.7,842.1,370.7z M860.2,370.7c1.6,0,3.1,0.2,4.5,0.9c1.4,0.7,2.6,1.4,3.8,2.6c1.2,1.2,1.9,2.6,2.6,4
						l-0.2,6.6c-1.4-3.1-2.8-5.4-4.7-7.1c-1.9-1.6-3.8-2.6-5.9-2.6c-1.6,0-3.1,0.5-4,1.4c-0.9,0.9-1.4,2.4-1.4,4s0.7,3.1,2.1,4.2
						c1.4,1.2,3.5,1.6,6.6,1.9l-0.5,4.9c-2.8-0.2-5.2-0.7-6.8-1.6c-1.9-0.9-3.1-2.4-4-3.8c-0.9-1.6-1.2-3.5-1.2-5.4
						c0-2.4,0.5-4,1.4-5.6s2.1-2.6,3.5-3.3C857.2,371.1,858.6,370.7,860.2,370.7z M880.9,371.1v4.5h-6.6v35h-4.9v-32.4l0.2-1.2
						c-0.2-0.7-0.2-1.4-0.2-2.1c0-0.7,0-1.6,0-2.6v-5.2h3.3l1.4,4.2h6.8V371.1z"/>
				</g>
				<g>
					<path class="st3" d="M432.7,372.3v-0.9c0-1.9-0.5-3.1-1.2-4c-0.7-0.9-2.1-1.2-4-1.2h-1.2c-2.8,0-4.9-0.2-6.3-0.5
						c-1.4-0.2-2.8-0.9-3.8-1.9c-1.2-0.9-2.1-1.9-2.6-3.3c-0.5-1.4-0.9-2.8-0.9-4.5c0-0.5,0-1.2,0-1.6s0.2-1.2,0.2-1.6l4.7,0.2
						c0,0.5-0.2,0.9-0.2,1.2c0,0.5,0,0.7,0,1.2c0,0.9,0,1.6,0.2,2.6c0.2,0.7,0.5,1.4,0.9,1.9c0.7,0.7,1.4,1.2,2.6,1.4
						c1.2,0.2,2.8,0.5,4.9,0.5h0.2c2.4,0,4,0.2,5.4,0.5c1.4,0.2,2.4,0.9,3.3,1.9c0.7,0.7,1.2,1.6,1.6,2.8c0.5,1.2,0.7,2.6,0.7,4.2
						L432.7,372.3z M437.2,371.1v4.5H436c-1.4,0.2-2.8,0.9-4.2,1.9c-1.4,0.9-3.1,2.4-4.2,3.8s-2.4,3.5-3.3,5.6
						c-0.9,2.1-1.4,4.5-1.4,7.1c0,3.1,0.5,5.4,1.4,7.3s2.1,3.1,3.3,3.8c1.4,0.7,2.8,1.2,4,1.2c1.2,0,1.9,0,2.6-0.2
						c0.7-0.2,1.6-0.7,2.6-1.2l2.1,3.8c-1.2,0.9-2.4,1.4-3.5,1.9c-1.4,0.2-2.6,0.5-4,0.5c-2.6,0-4.9-0.7-7.1-2.1
						c-2.1-1.4-3.5-3.3-4.7-5.9c-1.2-2.6-1.6-5.4-1.6-8.9c0-3.3,0.5-6.1,1.6-8.7c0.9-2.6,2.4-4.7,4-6.6s3.5-3.5,5.4-4.7
						c1.9-1.2,3.8-2.1,5.6-2.8L437.2,371.1L437.2,371.1z"/>
				</g>
				<g>
					<path class="st3" d="M322.7,371.1v4.5h-1.2c-1.4,0.2-2.8,0.9-4.2,1.9c-1.4,0.9-3.1,2.4-4.2,3.8s-2.4,3.5-3.3,5.6
						c-0.9,2.1-1.4,4.5-1.4,7.1c0,3.1,0.5,5.4,1.4,7.3s2.1,3.1,3.3,3.8c1.4,0.7,2.8,1.2,4,1.2s1.9,0,2.6-0.2
						c0.7-0.2,1.6-0.7,2.6-1.2l2.1,3.8c-1.2,0.9-2.4,1.4-3.5,1.9c-1.4,0.2-2.6,0.5-4,0.5c-2.6,0-4.9-0.7-7.1-2.1
						c-2.1-1.4-3.5-3.3-4.7-5.9c-1.2-2.6-1.6-5.4-1.6-8.9c0-3.3,0.5-6.1,1.6-8.7c0.9-2.6,2.4-4.7,4-6.6s3.5-3.5,5.4-4.7
						c1.9-1.2,3.8-2.1,5.6-2.8L322.7,371.1L322.7,371.1z"/>
					<path class="st3" d="M344.8,371.1c0-1.6-0.5-3.1-1.2-3.8c-0.7-0.7-2.1-1.2-3.8-1.2h-10.8c-2.8,0-4.9-0.2-6.3-0.5
						s-2.8-0.9-3.8-1.9c-1.2-0.9-2.1-1.9-2.6-3.3c-0.5-1.4-0.9-2.8-0.9-4.5c0-0.5,0-1.2,0-1.6c0-0.5,0.2-1.2,0.2-1.6l4.7,0.2
						c0,0.5-0.2,0.9-0.2,1.4c0,0.5,0,0.7,0,1.2c0,0.9,0,1.6,0.2,2.6c0.2,0.7,0.5,1.4,0.9,1.9c0.7,0.7,1.4,1.2,2.6,1.4
						c1.2,0.2,2.8,0.5,4.9,0.5h9.6c2.4,0,4,0.2,5.4,0.5c1.4,0.2,2.4,0.9,3.3,1.9c0.7,0.7,1.2,1.6,1.6,2.8c0.5,1.2,0.7,2.6,0.7,4.2
						h-4.7V371.1z M349.3,410.6h-4.9v-35h-6.6v-4.5h18.1v4.5h-6.6L349.3,410.6L349.3,410.6z"/>
				</g>
				<g>
					<path class="st3" d="M230.8,371.1v4.5h-4.5l3.8-1.4c-1.6,1.4-3.1,2.6-4,3.8c-0.9,1.2-1.4,2.4-1.9,3.3c-0.2,1.2-0.5,2.6-0.5,4.2
						c0,1.4,0.2,2.8,0.5,4.5c0.2,1.6,0.7,3.3,0.9,4.9c0.5,1.6,0.5,3.5,0.5,5.2c0,1.4-0.2,3.1-0.5,4.5c-0.2,1.4-0.9,2.8-1.9,4
						c-0.9,1.2-2.1,2.4-3.8,3.3c-1.6,0.9-3.8,1.6-6.6,2.4l-1.4-4.5c2.8-0.7,4.7-1.4,6.1-2.4c1.4-0.9,2.1-2.1,2.6-3.3
						c0.5-1.2,0.7-2.6,0.7-4c0-1.6-0.2-3.3-0.5-4.9c-0.2-1.6-0.7-3.3-0.9-4.7c-0.5-1.6-0.5-3.1-0.5-4.5c0-1.6,0.2-3.1,0.5-4.2
						c0.2-1.2,0.7-2.4,1.4-3.5c0.7-1.2,1.6-2.4,2.8-3.8l0.9,1.4h-11.3v-4.5h17.4V371.1z"/>
				</g>
			</g>
			<path class="st2" d="M798.9,499.5v82.7c0,10.6-8.5,19-19,19H406.4c-10.6,0-19-8.5-19-19v-82.7c0-10.6,8.5-19,19-19h373.5
				C790.4,480.4,798.9,488.9,798.9,499.5z"/>
			<g>
				<g>
					<path class="st4" d="M1045.4,451.5H937.6c-10.6,0-19-8.5-19-19v-82.7c0-10.6,8.5-19,19-19h107.9c10.6,0,19,8.5,19,19v82.7
						C1064.5,443,1056,451.5,1045.4,451.5z"/>
					<path class="st4" d="M248.9,601.2h-54.8c-10.6,0-19-8.5-19-19v-82.7c0-10.6,8.5-19,19-19h54.8c10.6,0,19,8.5,19,19v82.7
						C267.9,592.8,259.5,601.2,248.9,601.2z"/>
					<path class="st4" d="M355.1,601.2h-54.8c-10.6,0-19-8.5-19-19v-82.7c0-10.6,8.5-19,19-19h54.8c10.6,0,19,8.5,19,19v82.7
						C374.2,592.8,365.5,601.2,355.1,601.2z"/>
					<g>
						<g>
							<path class="st3" d="M327.6,565.7c-3.5,0-6.8-0.7-9.6-1.9c-3.1-1.4-5.6-3.1-7.8-5.4c-2.1-2.1-4-4.9-5.2-8
								c-1.2-3.1-1.9-6.3-1.9-9.9s0.7-6.8,1.9-9.6c1.2-2.8,3.1-5.6,5.2-7.8s4.9-4,7.8-5.2c3.1-1.2,6.3-1.9,9.6-1.9s6.8,0.7,9.6,1.9
								c3.1,1.2,5.6,3.1,7.8,5.2c2.1,2.1,4,4.9,5.2,7.8c1.2,3.1,1.9,6.1,1.9,9.6s-0.7,6.8-1.9,9.9c-1.2,3.1-3.1,5.6-5.2,8
								c-2.1,2.1-4.9,4-7.8,5.4C334.5,565,331.2,565.7,327.6,565.7z M327.6,562c1.4-1.4,2.6-3.3,3.5-5.2c0.9-1.9,1.9-4.2,2.4-6.8
								h-12c0.5,2.6,1.4,4.7,2.4,6.6C325.1,558.7,326.2,560.6,327.6,562z M322.5,561.3c-0.9-1.6-1.9-3.3-2.6-5.2
								c-0.7-1.9-1.4-3.8-1.9-6.1h-9.4c1.6,2.8,3.3,5.2,5.4,6.8C316.1,558.7,318.9,560.1,322.5,561.3z M333,561.3
								c3.1-0.9,5.6-2.4,8-4.2s4.2-4.2,5.6-6.8h-9.2c-0.5,2.1-1.2,4.2-1.9,6.1C334.9,558,334,559.6,333,561.3z M307.4,546.5h9.9
								c-0.2-1.2-0.2-2.1-0.2-3.1c0-0.9,0-1.9,0-2.6c0-0.9,0-1.9,0-2.8c0-0.7,0.2-1.6,0.2-2.6h-9.9c-0.2,0.9-0.5,1.9-0.7,2.6
								c0,0.7-0.2,1.6-0.2,2.8c0,1.2,0,2.1,0.2,2.8C307,544.3,307.2,545.3,307.4,546.5z M321.1,546.5h13.4c0.2-1.2,0.2-2.4,0.2-3.1
								s0-1.6,0-2.6c0-0.9,0-1.6,0-2.4s-0.2-1.9-0.2-3.1h-13.4c-0.2,1.2-0.2,2.4-0.2,3.1s0,1.6,0,2.4c0,0.9,0,1.6,0,2.6
								C320.8,544.1,320.8,545.1,321.1,546.5z M338,546.5h9.9c0.2-0.9,0.5-1.9,0.7-2.8c0-0.9,0.2-1.9,0.2-2.8s0-2.1-0.2-2.8
								c0-0.7-0.2-1.6-0.7-2.6H338c0.2,1.4,0.2,2.6,0.2,3.3c0,0.7,0,1.4,0,2.1c0,0.9,0,1.9,0,2.6S338.2,545.1,338,546.5z
								 M337.5,531.7h9.4c-1.4-2.8-3.3-5.2-5.6-7.1c-2.4-1.9-5.2-3.3-8.2-4c0.9,1.6,1.9,3.3,2.6,4.9
								C336.3,527.2,337,529.3,337.5,531.7z M321.8,531.7h12c-0.5-2.1-1.2-4.2-2.4-6.3c-1.2-2.1-2.4-3.8-3.8-5.4
								c-1.4,1.2-2.4,2.6-3.3,4.5C323.4,526,322.5,528.4,321.8,531.7z M308.6,531.7h9.4c0.5-2.1,0.9-4.2,1.6-5.9
								c0.7-1.6,1.6-3.5,2.6-5.2c-3.1,0.7-5.9,2.1-8.2,4C311.7,526.5,310,528.6,308.6,531.7z"/>
						</g>
					</g>
					<path class="st4" d="M886.1,601.2h-54.8c-10.6,0-19-8.5-19-19v-82.7c0-10.6,8.5-19,19-19h54.8c10.6,0,19,8.5,19,19v82.7
						C905.1,592.8,896.7,601.2,886.1,601.2z"/>
					<path class="st4" d="M1045.4,601.2H937.6c-10.6,0-19-8.5-19-19v-82.7c0-10.6,8.5-19,19-19h107.9c10.6,0,19,8.5,19,19v82.7
						C1064.5,592.8,1056,601.2,1045.4,601.2z"/>
					<path class="st4" d="M142.7,601.2H34.8c-10.6,0-19-8.5-19-19v-82.7c0-10.6,8.5-19,19-19h107.9c10.6,0,19,8.5,19,19v82.7
						C161.7,592.8,153.2,601.2,142.7,601.2z"/>
					<g>
						<path class="st3" d="M55.5,556.6c-2.8,0-5.2-0.7-6.3-1.9c-1.4-1.2-2.1-2.8-2.1-4.5c0-1.4,0.5-2.6,1.2-3.8
							c0.9-1.2,2.4-2.1,4.5-2.6l1.4,4c-1.2,0.2-1.9,0.5-2.4,0.9c-0.5,0.5-0.7,0.9-0.7,1.4c0,0.7,0.5,1.2,1.2,1.6s1.6,0.7,3.1,0.7
							c2.1,0,3.8-0.5,4.9-1.6c1.2-0.9,1.6-2.4,1.6-4c0-0.9-0.2-1.9-0.7-2.8c-0.5-0.7-1.2-1.6-2.1-2.6c-0.9-0.9-2.4-1.9-4-3.1
							c-2.1-1.4-3.8-2.8-4.9-3.8c-1.2-0.9-2.1-1.9-2.6-2.8c-0.5-0.9-0.7-1.9-0.7-2.8c0-0.7,0.2-1.6,0.7-2.6c0.5-0.9,1.2-1.9,1.9-2.6
							l3.5,1.9c-0.5,0.5-0.9,0.9-1.2,1.6c-0.2,0.5-0.5,0.9-0.5,1.6c0,0.5,0,0.9,0.2,1.2s0.5,0.9,0.9,1.4c0.5,0.5,1.2,1.2,1.9,1.6
							c0.9,0.7,2.1,1.4,3.5,2.6c2.1,1.4,3.5,2.6,4.7,3.8s2.1,2.4,2.6,3.5s0.7,2.6,0.7,4.2c0,1.9-0.5,3.5-1.4,4.9
							c-0.9,1.4-2.1,2.6-3.8,3.3C59.5,556.1,57.6,556.6,55.5,556.6z"/>
						<path class="st3" d="M77.8,528.6c0-0.7,0.2-1.4,0.5-2.4c0.5-0.7,0.9-1.6,1.6-2.6l3.3,1.9c-0.5,0.5-0.7,0.9-0.9,1.2
							c-0.2,0.5-0.2,0.7-0.2,1.2s0.2,0.9,0.5,1.2c0.2,0.2,0.7,0.5,1.6,0.7c0.7,0.2,1.9,0.5,3.5,0.7c3.5,0.7,6.1,1.6,7.5,3.1
							c1.4,1.4,2.1,3.1,2.1,5.2c0,2.4-0.9,4.2-2.8,5.9c-1.9,1.6-4.7,2.6-8,2.8c-0.2,0-0.7,0-0.9,0c-0.2,0-0.7-0.2-0.9-0.2l2.1-0.5
							c1.4,0.5,3.1,1.2,4.7,1.9s3.1,1.6,4.7,2.8c1.6,1.2,3.1,2.1,4.5,3.3l-2.4,2.8c-2.1-1.6-4-3.1-5.6-4.2c-1.6-1.2-3.5-2.1-5.2-2.8
							c-1.6-0.7-3.5-1.4-5.4-2.1c-1.9-0.5-4.2-1.2-6.6-1.6l0.7-3.8c1.2,0.2,2.4,0.7,3.8,0.9c1.2,0.2,2.8,0.2,4.7,0.2
							c3.5,0,5.9-0.5,7.3-1.4c1.4-0.9,2.1-2.1,2.1-3.8c0-0.9-0.2-1.6-0.7-2.1c-0.5-0.7-1.2-1.2-2.1-1.6c-0.9-0.5-2.4-0.7-4.2-1.2
							c-2.1-0.5-3.5-0.9-4.9-1.4c-1.2-0.5-2.1-1.2-2.8-1.9C78,530.5,77.8,529.5,77.8,528.6z"/>
						<path class="st3" d="M130.4,541.3c0,2.6-0.5,4.7-1.2,6.8c-0.7,2.1-1.9,3.5-3.5,4.7c-1.6,1.2-3.5,1.6-6.1,1.6
							c-1.9,0-3.5-0.2-5.2-0.9c-1.6-0.7-3.1-1.9-4.5-3.5c-1.4-1.6-2.6-4-3.8-7.1c-1.2-3.1-2.1-7.1-3.1-11.8l4-0.9
							c0.9,5.2,2.1,9.2,3.3,12.2c1.2,3.1,2.4,5.2,4,6.3c1.4,1.2,3.1,1.9,5.2,1.9c1.6,0,3.1-0.5,4.2-1.2c0.9-0.9,1.6-1.9,2.1-3.3
							s0.7-3.1,0.7-4.7c0-2.1-0.2-4-0.9-5.6c-0.5-1.6-1.4-3.1-2.4-4c-0.9-0.9-2.1-1.4-3.3-1.4c-0.9,0-1.6,0.2-2.1,0.7
							s-0.7,1.2-0.7,1.9c0,0.5,0,1.2,0.2,1.6c0.2,0.5,0.5,1.2,0.7,1.9l-4.2,1.2c-0.5-0.9-0.7-1.6-0.9-2.6c-0.2-0.9-0.2-1.6-0.2-2.4
							c0-1.4,0.2-2.6,1.2-3.5c0.7-0.9,1.6-1.4,2.6-1.9c0.9-0.5,2.1-0.5,3.1-0.5c2.4,0,4.5,0.7,6.1,1.9c1.6,1.4,2.8,3.1,3.8,5.4
							C130,536.1,130.4,538.5,130.4,541.3z"/>
					</g>
					<g>
						<path class="st3" d="M983.2,557.3l-16.5-16.5l16.5-16.5l3.1,3.1l-11.5,11.5h37.6v-11.8h4.2v16h-41.6l11.5,11.5L983.2,557.3z"
							/>
					</g>
					<g>
						<path class="st3" d="M983.4,410.4c-0.9,0-1.9-0.2-2.8-0.7c-0.9-0.5-1.6-1.2-2.1-2.1l-11.5-16.5l11.5-16.5
							c0.7-0.9,1.4-1.4,2.1-2.1c0.9-0.5,1.6-0.7,2.8-0.7h28.9c1.2,0,2.1,0.5,2.8,1.2c0.7,0.7,1.2,1.9,1.2,2.8v30.3
							c0,1.2-0.5,2.1-1.2,2.8c-0.7,0.7-1.9,1.2-2.8,1.2h-28.9V410.4z M1012.1,406.1v-30.3V406.1z M982.5,406.1h29.6v-30.3h-29.6
							l-10.6,15L982.5,406.1z M989.3,401.7l7.8-7.8l7.8,7.8l3.1-3.1l-7.8-7.8l7.8-7.8l-3.1-3.1l-7.5,7.8l-7.8-7.8l-3.1,3.1l7.8,7.8
							l-7.8,7.8L989.3,401.7z"/>
					</g>
					<g>
						<path class="st3" d="M225.2,553l0.5,0.7c-0.5,1.4-0.9,3.1-1.4,4.7c-0.5,1.6-1.2,3.3-1.9,4.9s-1.4,3.3-2.1,4.7H216
							c0.7-2.6,1.2-5.2,1.6-7.8c0.5-2.6,0.9-4.9,1.2-7.3H225.2z"/>
					</g>
					<g>
						<path class="st3" d="M859.1,560.6v-39.5h5.2v39.5H859.1z"/>
					</g>
				</g>
			</g>
			<g>
				<polygon class="st3" points="77.8,417.2 77.8,395.8 63.9,395.8 88.6,364.8 113.5,395.8 99.7,395.8 99.7,417.2 				"/>
				<polygon class="st3" points="81.8,413 95.7,413 95.7,391.8 104.8,391.8 88.6,371.4 72.6,391.8 81.8,391.8 				"/>
			</g>
		</g>
	</g>
	<g>
		<g>
			<path class="st5" d="M260.9,193v1.6h-8.7v4.2c0,0.5,0,0.7,0.2,0.9s0.5,0.2,0.7,0.2c0.2,0,0.7,0,0.9-0.2s0.7-0.5,0.9-0.9
				c0.5-0.5,0.7-0.9,1.2-1.6l1.4-0.2c0.5,0.7,0.9,1.4,1.2,2.4c0.2,0.7,0.5,1.6,0.5,2.4c0,0.9-0.2,1.9-0.7,2.6
				c-0.5,0.7-0.9,1.4-1.9,1.9s-1.9,0.7-3.3,0.7c-1.6,0-3.3-0.2-4.7-0.9c-1.4-0.7-2.8-1.6-4-3.1c-1.2-1.4-2.4-3.3-3.3-5.9l1.9-0.5
				c0.5,1.2,0.9,2.1,1.4,3.3c0.5,1.2,1.2,1.9,1.9,2.8c0.7,0.9,1.6,1.6,2.8,2.4l0,0c-0.7-0.7-1.2-1.4-1.6-2.1
				c-0.5-0.9-0.9-1.6-1.4-2.8c-0.5-0.9-0.7-1.9-0.9-2.8l1.9-0.5c0.5,1.4,0.7,2.8,1.2,3.8c0.5,1.2,0.9,1.9,1.4,2.6
				c0.5,0.7,1.2,1.2,1.6,1.6c0.7,0.2,1.4,0.5,2.4,0.5c0.9,0,1.6-0.2,2.1-0.5c0.5-0.2,0.9-0.7,1.2-1.2c0.2-0.5,0.5-1.2,0.5-1.6
				c0-0.7,0-1.4-0.2-1.9c-0.2-0.5-0.5-0.9-0.7-1.2h0.7c-0.2,0.5-0.7,0.9-1.2,1.4c-0.5,0.5-0.9,0.9-1.4,1.2c-0.5,0.2-0.9,0.5-1.6,0.5
				c-0.5,0-0.7,0-0.9-0.2c-0.2,0-0.5-0.2-0.7-0.5c-0.2-0.2-0.5-0.5-0.7-0.9c-0.2-0.5-0.2-1.2-0.2-2.1v-3.8h-10.1v-1.6h20.4V193z
				 M256,193c0-0.7-0.2-1.2-0.5-1.4c-0.2-0.2-0.7-0.5-1.4-0.5h-4.5c-0.9,0-1.9,0-2.4-0.2c-0.5-0.2-0.9-0.5-1.4-0.7
				c-0.5-0.2-0.7-0.7-0.9-1.2c-0.2-0.5-0.2-0.9-0.2-1.6c0-0.2,0-0.5,0-0.7c0-0.2,0-0.5,0-0.7l1.6,0.2c0,0.2,0,0.2,0,0.5s0,0.2,0,0.5
				s0,0.7,0,0.9s0.2,0.5,0.2,0.7c0.2,0.2,0.5,0.5,0.9,0.5c0.5,0.2,0.9,0.2,1.9,0.2h4c0.9,0,1.4,0,1.9,0.2s0.9,0.5,1.2,0.7
				c0.2,0.2,0.5,0.7,0.7,0.9c0.2,0.5,0.2,0.9,0.2,1.6C257.4,193,256,193,256,193z"/>
		</g>
	</g>
	<g>
		<g>
			<path class="st5" d="M362.7,352.1c0,1.4-0.5,2.4-1.4,3.1c-0.9,0.7-2.4,1.2-4,1.2c-1.2,0-2.1-0.2-3.1-0.5
				c-0.9-0.5-1.9-0.9-2.8-1.9c-0.9-0.9-1.6-1.9-2.4-3.3c-0.7-1.4-1.4-3.1-1.9-5.2l1.9-0.5c0.7,2.4,1.4,4,2.1,5.4
				c0.7,1.4,1.6,2.6,2.6,3.1c0.9,0.5,2.1,0.9,3.5,0.9c0.9,0,1.9-0.2,2.4-0.7c0.5-0.5,0.9-1.2,0.9-1.9c0-0.7-0.2-1.2-0.7-1.6
				c-0.5-0.5-0.9-0.7-1.6-0.9l1.9-0.9c0.7,0.5,1.2,0.9,1.6,1.4C362.2,350.2,362.7,351.4,362.7,352.1z M358.7,342.7
				c1.2,0,2.1,0.2,2.8,0.9c0.7,0.7,0.9,1.4,0.9,2.4c0,0.5,0,0.7-0.2,0.9c-0.2,0.2-0.5,0.7-0.7,0.9v0.5c-0.5,0.5-0.9,0.9-1.6,1.4
				c-0.7,0.5-1.4,0.7-2.1,0.9L357,349c0.9-0.2,1.9-0.7,2.4-1.2s0.9-1.2,0.9-1.9c0-0.5-0.2-0.9-0.5-1.4c-0.2-0.2-0.7-0.5-1.4-0.5
				c-0.5,0-1.2,0-1.6,0.2c-0.5,0.2-0.9,0.5-1.4,0.7c-0.5,0.2-0.7,0.7-0.9,0.9c-0.2,0.2-0.2,0.7-0.2,0.9c0,0.2,0,0.5,0.2,0.7
				s0.5,0.2,1.2,0.5l-0.5,1.6c-0.9-0.2-1.6-0.5-2.1-0.9c-0.5-0.5-0.7-0.9-0.7-1.6c0-0.5,0.2-1.2,0.5-1.6c0.2-0.5,0.7-0.9,1.4-1.4
				c0.5-0.5,1.2-0.9,1.9-1.2C356.8,342.7,357.7,342.7,358.7,342.7z M366.2,343.9c0,0.9-0.2,1.6-0.7,2.4c-0.5,0.7-1.2,1.2-1.9,1.6
				c-0.9,0.5-1.9,0.9-2.8,1.4l1.2-2.4c0.5-0.2,0.7-0.5,1.2-0.7s0.7-0.7,0.9-0.9c0.2-0.5,0.2-0.7,0.2-1.4c0-0.5,0-0.7-0.2-0.9
				c-0.2-0.2-0.2-0.5-0.5-0.7c-0.2-0.2-0.7-0.5-1.2-0.7c-0.5-0.2-1.2-0.2-1.9-0.5l-2.8-0.5c-0.9-0.2-1.9-0.5-2.4-0.7
				c-0.7-0.2-1.2-0.7-1.4-1.2s-0.5-1.2-0.5-2.1c0-0.2,0-0.2,0-0.5s0-0.5,0-0.5h1.6c0,0.2,0,0.2,0,0.5c0,0.2,0,0.2,0,0.5
				c0,0.2,0,0.7,0,0.9s0.2,0.5,0.5,0.7c0.2,0.2,0.5,0.2,0.7,0.5c0.2,0.2,0.7,0.2,1.2,0.2l3.3,0.5c0.5,0,0.9,0.2,1.4,0.2
				c0.5,0,0.7,0.2,1.2,0.5c0.2,0.2,0.7,0.2,0.9,0.5c0.5,0.5,0.9,0.7,1.2,1.4C366.2,342.7,366.2,343.2,366.2,343.9z"/>
		</g>
	</g>
	<g>
		<g>
			<path class="st5" d="M464.9,342.7c0.7,0,1.2,0,1.6,0.2c0.5,0.2,0.7,0.2,1.2,0.7c0.2,0.2,0.5,0.5,0.7,0.9c0.2,0.5,0.2,0.9,0.2,1.4
				v11.5h-1.9c-0.2-0.5-0.2-0.9-0.5-1.2c-0.2-0.2-0.5-0.5-0.9-0.7c-0.5-0.2-0.7-0.2-1.2-0.2s-1.2,0-1.6,0c-0.5,0-0.9,0.2-1.4,0.2
				c-0.5,0-1.2,0-1.9,0c-0.5,0-1.2,0-1.6-0.2c-0.7,0-1.2-0.2-1.6-0.7c-0.5-0.2-0.9-0.7-1.4-1.4c-0.5-0.7-0.5-1.4-0.5-2.6
				c0-0.5,0-0.7,0-1.2s0.2-0.7,0.2-1.2l1.9,0.2c0,0.2-0.2,0.5-0.2,0.9c0,0.2,0,0.7,0,1.2c0,0.7,0,1.2,0.2,1.6s0.5,0.7,0.9,0.9
				c0.2,0.2,0.7,0.5,1.2,0.5s0.9,0,1.4,0c0.7,0,1.4,0,2.1-0.2s1.4-0.2,2.1-0.2c0.7,0,1.2,0,1.9,0.2c0.5,0.2,0.9,0.5,1.2,0.9V346
				c0-0.5,0-0.9,0-1.2s-0.2-0.5-0.5-0.7c-0.2-0.2-0.7-0.2-1.4-0.2c-0.5,0-1.2,0.2-1.6,0.5c-0.5,0.2-0.9,0.5-1.4,0.9
				s-0.7,0.7-0.9,1.2c-0.2,0.5-0.2,0.9-0.2,1.2s0,0.2,0,0.5c0,0.2,0.2,0.2,0.5,0.5c0.2,0.2,0.5,0.2,0.9,0.2c0.2,0,0.2,0,0.5,0
				c0.2,0,0.2,0,0.5,0l0.2,1.6c-0.2,0-0.5,0-0.7,0.2s-0.5,0-0.9,0c-0.7,0-1.4-0.2-2.1-0.7c-0.5-0.5-0.9-1.2-0.9-2.1
				c0-0.7,0.2-1.2,0.5-1.9c0.2-0.7,0.7-1.2,1.4-1.9c0.5-0.5,1.2-0.9,1.9-1.4C463.3,342.9,464,342.7,464.9,342.7z M472.4,343.9
				c0,0.9-0.2,1.6-0.5,2.1c-0.5,0.7-0.9,1.2-1.4,1.6c-0.5,0.5-1.4,0.7-2.1,1.2v-1.9c0.5-0.2,0.7-0.5,1.2-0.7s0.7-0.5,0.9-0.9
				c0.2-0.5,0.2-0.9,0.2-1.4c0-0.5,0-0.7-0.2-0.9c-0.2-0.2-0.2-0.5-0.5-0.7c-0.2-0.2-0.7-0.5-1.2-0.7c-0.5-0.2-1.2-0.2-1.9-0.5
				l-2.4-0.2c-0.9-0.2-1.9-0.5-2.4-0.7c-0.7-0.2-1.2-0.7-1.4-1.2s-0.5-1.2-0.5-2.1c0-0.2,0-0.2,0-0.5c0-0.2,0-0.5,0-0.5h1.6
				c0,0,0,0.2,0,0.5c0,0.2,0,0.2,0,0.5c0,0.2,0,0.7,0,0.9c0,0.2,0.2,0.5,0.5,0.7c0.2,0.2,0.5,0.2,0.7,0.5c0.2,0.2,0.7,0.2,1.2,0.2
				l3.1,0.5c0.7,0,1.2,0.2,1.9,0.2c0.5,0.2,0.9,0.2,1.4,0.5c0.5,0.2,0.7,0.5,0.9,0.7c0.5,0.5,0.7,0.7,0.9,1.4
				C472.9,343.2,472.4,343.4,472.4,343.9z"/>
		</g>
	</g>
	<g>
		<g>
			<path class="st5" d="M365.2,193v1.6h-16.7V193H365.2z M360.1,193c0-0.7-0.2-1.2-0.5-1.4c-0.2-0.2-0.7-0.5-1.4-0.5h-3.3
				c-0.9,0-1.9,0-2.4-0.2c-0.5-0.2-0.9-0.5-1.4-0.7c-0.5-0.2-0.7-0.7-0.9-1.2c-0.2-0.5-0.2-0.9-0.2-1.6c0-0.2,0-0.5,0-0.7
				c0-0.2,0-0.5,0-0.7l1.6,0.2c0,0.2,0,0.5,0,0.5c0,0.2,0,0.2,0,0.5s0,0.7,0,0.9s0.2,0.5,0.2,0.7c0.2,0.2,0.5,0.5,0.9,0.5
				c0.5,0.2,0.9,0.2,1.9,0.2h2.8c0.9,0,1.4,0,2.1,0.2c0.5,0.2,0.9,0.5,1.2,0.7c0.2,0.2,0.5,0.7,0.7,0.9c0.2,0.5,0.2,0.9,0.2,1.6
				C361.7,193,360.1,193,360.1,193z M352.3,196.7c0-0.5-0.2-0.9-0.7-1.4c-0.5-0.5-0.9-0.7-1.6-0.7l0.5-1.2l1.2,0.2
				c0.9,0.2,1.4,0.7,1.9,1.2c0.5,0.5,0.7,0.9,0.7,1.6L352.3,196.7z M353.7,205.4c-0.5,0-1.2-0.2-1.6-0.5c-0.5-0.5-0.9-0.9-1.4-1.6
				l1.4-0.9c0.2,0.5,0.5,0.9,0.7,0.9c0.2,0,0.5,0.2,0.7,0.2s0.5,0,0.7-0.2c0.2-0.2,0.5-0.5,0.9-0.9c0.2-0.5,0.5-0.7,0.7-0.9
				s0.2-0.7,0.2-0.9c0-0.5,0-0.9-0.2-1.4c-0.2-0.5-0.5-0.7-0.9-1.2c-0.5-0.2-0.9-0.5-1.4-0.5c-0.5,0-0.9,0-1.2,0.2
				c-0.2,0.2-0.5,0.5-0.5,0.9c0,0.2,0,0.5,0,0.5c0,0.2,0,0.2,0.2,0.5l-1.6,0.5c-0.2-0.2-0.2-0.7-0.2-0.9c0-0.2,0-0.5,0-0.7
				c0-0.7,0.2-1.2,0.5-1.4c0.2-0.5,0.7-0.7,1.2-0.7c0.5-0.2,0.9-0.2,1.6-0.2c0.9,0,1.6,0.2,2.4,0.5c0.7,0.5,1.2,0.9,1.4,1.6
				c0.2,0.7,0.5,1.4,0.5,2.4v0.2c0,0.2,0,0.2,0,0.2l-1.2,0.2c0.5-0.5,0.7-1.2,1.2-1.6c0.5-0.5,0.9-1.2,1.6-1.6
				c0.7-0.5,1.4-0.9,2.4-1.4l1.6,1.4c-0.5,0.7-0.7,1.6-0.9,2.4c-0.2,0.7-0.2,1.6-0.2,2.6c0,0.7,0,1.4,0.2,2.1
				c0.2,0.7,0.2,1.4,0.7,2.4l-1.9,0.5c-0.2-0.9-0.5-1.6-0.7-2.6s-0.2-1.6-0.2-2.6s0-1.6,0.2-2.4c0.2-0.7,0.5-1.4,0.7-2.1l0.9-0.2
				c-0.5,0.2-0.7,0.5-1.2,0.7c-0.5,0.2-0.7,0.5-1.2,0.9c-0.5,0.2-0.7,0.7-1.2,1.2c-0.5,0.5-0.9,1.2-1.4,1.9
				c-0.5,0.7-0.9,1.2-1.2,1.6c-0.2,0.5-0.7,0.7-0.9,0.9S354.2,205.4,353.7,205.4z"/>
		</g>
	</g>
	<g>
		<path class="st6" d="M572.8,539.4c0,1.6-0.2,3.1-0.9,4.2c-0.7,1.2-1.4,1.9-2.6,2.4s-2.4,0.7-3.8,0.7c-2.4,0-4.2-0.7-5.4-1.9
			c-1.2-1.2-1.9-3.1-1.9-5.6v-12.7h0.7v12.9c0,2.4,0.5,4,1.6,5.2c1.2,1.2,2.8,1.6,4.9,1.6s3.5-0.5,4.9-1.6c1.2-1.2,1.9-2.6,1.9-4.9
			v-13.2h0.7v12.9H572.8z"/>
		<path class="st6" d="M584.1,531.4c1.6,0,2.8,0.5,3.8,1.4c0.9,0.9,1.4,2.4,1.4,4v9.9h-0.7v-9.6c0-1.6-0.5-2.8-1.2-3.5
			s-1.9-1.2-3.3-1.2c-1.6,0-2.8,0.5-4,1.4c-1.2,0.9-1.4,2.4-1.4,4.5v8.5H578v-14.8h0.7v3.1l0,0c0.2-0.5,0.5-1.2,0.9-1.6
			c0.5-0.5,0.9-0.9,1.6-1.2C582.2,531.7,583.1,531.4,584.1,531.4z"/>
		<path class="st6" d="M594.4,526.3c0.2,0,0.5,0,0.7,0.2c0,0.2,0.2,0.5,0.2,0.7s0,0.5-0.2,0.7c0,0.2-0.2,0.2-0.7,0.2
			c-0.2,0-0.5,0-0.5-0.2c0-0.2-0.2-0.5-0.2-0.7s0-0.5,0.2-0.7S594.2,526.3,594.4,526.3z M594.9,531.7v14.8h-0.7v-14.8H594.9z"/>
		<path class="st6" d="M597.7,553.3c-0.5,0-0.7,0-0.9,0c-0.2,0-0.5-0.2-0.7-0.2v-0.7c0.2,0.2,0.5,0.2,0.9,0.2c0.2,0,0.5,0,0.9,0
			c0.7,0,1.4-0.2,1.6-0.7c0.2-0.5,0.5-1.2,0.5-2.1v-18.1h0.7V550c0,0.7-0.2,1.4-0.5,1.9s-0.7,0.9-1.2,1.2
			C598.9,553.3,598.4,553.3,597.7,553.3z M599.6,527.2c0-0.2,0-0.5,0.2-0.7s0.2-0.2,0.5-0.2s0.5,0,0.7,0.2s0.2,0.5,0.2,0.7
			s0,0.5-0.2,0.7c0,0.2-0.2,0.2-0.7,0.2c-0.2,0-0.5,0-0.5-0.2C599.8,527.7,599.6,527.4,599.6,527.2z"/>
		<path class="st6" d="M617.9,539.2c0,1.4-0.2,2.8-0.7,4c-0.5,1.2-1.2,2.1-2.1,2.8c-0.9,0.7-2.1,0.9-3.8,0.9c-1.4,0-2.6-0.2-3.5-0.9
			c-0.9-0.7-1.6-1.6-2.1-2.8c-0.5-1.2-0.7-2.6-0.7-4c0-2.4,0.5-4.2,1.6-5.6c1.2-1.4,2.8-2.1,4.9-2.1c1.4,0,2.8,0.2,3.5,0.9
			c0.9,0.7,1.6,1.6,2.1,2.8S617.9,537.8,617.9,539.2z M605.7,539.2c0,1.4,0.2,2.6,0.7,3.8c0.5,1.2,0.9,1.9,1.9,2.6
			c0.9,0.7,1.9,0.9,3.1,0.9c1.4,0,2.4-0.2,3.3-0.9s1.4-1.4,1.9-2.6c0.5-1.2,0.7-2.4,0.7-3.5c0-1.4-0.2-2.6-0.5-3.5
			c-0.2-0.9-0.9-1.9-1.9-2.6s-1.9-0.9-3.3-0.9c-1.9,0-3.3,0.7-4.2,1.9C606.2,535.2,605.7,537.1,605.7,539.2z"/>
		<path class="st6" d="M618.9,531.7h0.7l3.8,10.1c0.2,0.9,0.7,1.6,0.9,2.4s0.5,1.2,0.5,1.4l0,0c0.2-0.5,0.2-0.9,0.5-1.4
			c0.2-0.7,0.5-1.4,0.7-2.1l4-10.1h0.7l-7.1,18.1c-0.2,0.7-0.7,1.4-0.9,2.1c-0.2,0.5-0.7,0.9-1.2,1.2c-0.5,0.2-0.9,0.5-1.6,0.5
			c-0.2,0-0.5,0-0.7,0c-0.2,0-0.5,0-0.7-0.2v-1.2c0.2,0,0.5,0.2,0.7,0.2c0.2,0,0.5,0,0.7,0c0.7,0,1.4-0.2,1.9-0.7
			c0.5-0.5,0.9-1.4,1.4-2.6l1.2-3.1L618.9,531.7z"/>
	</g>
</g>
</svg>
