<svg id="Layer_1" data-name="Layer 1" xmlns="http://www.w3.org/2000/svg" viewBox="0 0 1080 1080"><defs><style>.cls-1{fill:#55f;}.cls-2{fill:#fff;}</style></defs><rect class="cls-1" width="1080" height="1080" rx="102.48"/><path class="cls-2" d="M819,863.64a171.9,171.9,0,0,1-1.72-26.9v-227h51.59l-20-34H211.12l29.82,34H358.23a158.53,158.53,0,0,0-16.43,15.72A154.4,154.4,0,0,0,326.89,645a124.21,124.21,0,0,0-10.78,21.66A64.9,64.9,0,0,0,312,688.92a59.86,59.86,0,0,0,4.13,21.26c2.82,7.16,7.46,14.11,14,21,10.28,11.08,20.26,18.64,30.13,22.67s19.15,6,27.71,6a64,64,0,0,0,13.6-1.31,96.82,96.82,0,0,0,11.39-3.23,70.39,70.39,0,0,0,9-3.83c2.62-1.21,4.73-2.42,6.45-3.32l1.91-1.51a5.35,5.35,0,0,1,2.82-1.11c1-.1,2.32-.1,3.73-.1a11.67,11.67,0,0,1,7.66,2.52c2.11,1.71,3.12,4.83,3.12,9.17a25.48,25.48,0,0,1-3.93,13.7,44.33,44.33,0,0,1-10.28,11.59A79.72,79.72,0,0,1,419,791.9,105,105,0,0,1,402.66,799a133,133,0,0,1-16.12,4.44,75.2,75.2,0,0,1-13.7,1.61,99.21,99.21,0,0,1-49.68-14.11,108.34,108.34,0,0,1-23.78-19.24,103.82,103.82,0,0,1-18.44-28.72c-4-9.67-7.05-17.53-8.86-23.58a130.85,130.85,0,0,1-4-16,58.82,58.82,0,0,0-4.34-14.21c-1.81-4-5.54-8.16-11.08-12.19a12.4,12.4,0,0,0-5.34-1.71c-5.54,0-8.36,3.62-8.36,11a79.68,79.68,0,0,0,2.21,17.13c.51,2.32,1.62,6,3.23,11.08a8.06,8.06,0,0,1,.2.81c.1.3.2.7.4,1.31.4,1.51,1.21,3.83,2.32,6.85a34.62,34.62,0,0,0,1.21,3.53,1.42,1.42,0,0,0,.2.6,213.47,213.47,0,0,0,9.07,20.76,25.61,25.61,0,0,0,1.91,3.63A286.79,286.79,0,0,0,281,787.16a11.8,11.8,0,0,0,1,1.31v.1c.81,1.11,1.71,2.22,2.52,3.33,3.63,4.83,6.95,9,10.08,12.59a247.36,247.36,0,0,0,18.44,18.65,135.81,135.81,0,0,0,21.05,15.61,110.75,110.75,0,0,0,23.28,10.78,84.59,84.59,0,0,0,42.82,2.32,151,151,0,0,0,35.17-12.79,97.83,97.83,0,0,0,24.79-18.24A72.15,72.15,0,0,0,475,798.45a66.93,66.93,0,0,0,4.84-25,67.69,67.69,0,0,0-13.41-40.61c-9-12.39-16.62-21-22.87-25.89s-12.19-7.36-17.73-7.36a22.46,22.46,0,0,0-9.47,2.22c-3.13,1.51-6.25,2.92-9.58,4.43-2.62,1.11-5.54,2.42-8.86,3.73s-6.75,2.72-10.28,3.83-7,2.11-10.68,2.92a45.85,45.85,0,0,1-10.28,1.21c-5.84,0-10.28-1-13.4-3.12s-4.64-6.25-4.64-12.5a45.06,45.06,0,0,1,3.93-17.93,96.6,96.6,0,0,1,9.88-17.74,111.4,111.4,0,0,1,13.2-15.72,149.09,149.09,0,0,1,13.8-12.39,54.67,54.67,0,0,0,7.36,8.47,136.3,136.3,0,0,0,11.49,9.87c4.33,3.43,9.16,6.85,14.4,10.38A175.57,175.57,0,0,0,439,677.13a183.46,183.46,0,0,0,35.77,15,127.24,127.24,0,0,0,36.88,5.74,75.52,75.52,0,0,0,12.69-.71c-6,8.77-9.37,13.81-9.77,14.92A20.15,20.15,0,0,0,512.9,716c-.81,2.11-1.92,5-3.23,8.76a152.48,152.48,0,0,0-7.05,24.79A155.47,155.47,0,0,0,499.9,780c0,14.81,2.31,32.54,7.05,53s12.49,43.33,23.28,68.42a51.06,51.06,0,0,0,6.95,11.08,72.81,72.81,0,0,0,8.87,8.87,58.17,58.17,0,0,0,9.27,6.14,19.32,19.32,0,0,0,8.16,2.32c5.14,0,7.76-2.42,7.76-7.15a15.44,15.44,0,0,0-2.93-8.77q-16.62-28.56-23.37-53.4a180.67,180.67,0,0,1-6.65-46.76,140.54,140.54,0,0,1,3.52-32.54,168.79,168.79,0,0,1,9.27-28.52,174.58,174.58,0,0,1,13.2-25.09c4.94-7.75,10-15,15-21.86a9.9,9.9,0,0,0,2.21-8.26,28.63,28.63,0,0,0-3.62-9.68,78.37,78.37,0,0,0-7.36-10.17c-2.92-3.43-5.84-6.55-8.77-9.48a98.53,98.53,0,0,0-8.26-7.35c-3-2.42-6-4.64-9-6.65a59,59,0,0,0-9-4.74,21.42,21.42,0,0,0-8.06-1.81,11.63,11.63,0,0,0-4.14.7A101.7,101.7,0,0,1,505,653.45a112.85,112.85,0,0,1-21.26,1.92,93,93,0,0,1-19.65-2,88,88,0,0,1-19.05-6.24,83.09,83.09,0,0,1-17.23-10.28,66.4,66.4,0,0,1-14-14.11q2-1.05,4.83-2.72c1.82-1.11,3.83-2.32,5.95-3.53s4.23-2.41,6.35-3.52,4-2.22,5.64-3.23H592a22,22,0,0,0,6.15,6.15,110.4,110.4,0,0,0,10.28,6.45c3.83,2.21,8,4.33,12.29,6.45s8.46,4.13,12.39,6.14c1.92.91,3.83,1.92,5.85,2.92s3.83,1.82,5.64,2.73c1.41.8,4.53,2.51,9.27,5.34s11.18,6.65,19.55,11.68A13,13,0,0,1,678,667.86c0,2.92-1.21,6.75-3.52,11.39a92.75,92.75,0,0,1-11.79,16.52,251,251,0,0,1-21.46,21.67c-8.87,8.16-19.86,17.23-32.85,27.2-6,4.54-9.07,9.37-9.07,14.61a19,19,0,0,0,3.12,10.38,123,123,0,0,0,7.36,10.18l4.93,6a12.38,12.38,0,0,1,2.22,3.73,22.88,22.88,0,0,0,5.24,8.57c2.32,2.41,5.74,3.62,10.08,3.62a35.53,35.53,0,0,0,4.93-.5,34.61,34.61,0,0,0,6.55-1.92,132.4,132.4,0,0,1,26.81-9.16,111.63,111.63,0,0,1,23.27-2.62,77.43,77.43,0,0,1,26.3,4.23,91,91,0,0,1,21.26,10.48,84.71,84.71,0,0,1,16.22,14,107.89,107.89,0,0,1,11.49,15,93.41,93.41,0,0,1,7.15,13.4c1.62,3.93,2.52,6.85,2.62,8.66a33.8,33.8,0,0,0,3.63,13.81,41.27,41.27,0,0,0,7.36,10.07,65.28,65.28,0,0,0,9.67,8c3.53,2.42,7.05,4.74,10.68,7a7.58,7.58,0,0,0,4.33,1.51c2.93,0,5.75-1.72,8.37-5.14a18.42,18.42,0,0,0,2.92-5c.81-2,.3-3.83-1.51-5.44C821.93,875,820.12,870.29,819,863.64Zm-40.11-66.5A79.76,79.76,0,0,0,769,786.05c-4-3.82-8.26-7.55-12.7-11.08s-9.06-6.75-13.8-9.77a139,139,0,0,0-12.9-7.16,134.4,134.4,0,0,0-22.16-7.65,92,92,0,0,0-23.08-2.83,159.7,159.7,0,0,0,19.25-21.06,214.44,214.44,0,0,0,16.62-24.88,17.13,17.13,0,0,0,3.33-7.36,43.78,43.78,0,0,0,.6-7,30.79,30.79,0,0,0-3.83-14.71A90.89,90.89,0,0,0,710.89,658a135.43,135.43,0,0,0-12.59-13.71c-4.54-4.33-8.87-8.26-12.9-11.79-5.24-4.93-9.78-9.27-13.5-13.09s-6.25-7.06-7.56-9.68H778.9ZM727.38,851.5q2.94,8.19.24,14.54-2.19,5.37-5.25,7.45a19.06,19.06,0,0,1-6,2.81c-2.13.49-4,.85-5.5,1.1a10.28,10.28,0,0,0-4.77,2.32,40,40,0,0,0-7.57,7.08q-2.94,3.68-3.18,6.36a52,52,0,0,1-2.44,6.72q-1.47,3.3-6.84,4.76a14.76,14.76,0,0,1-10.26-4.28,44.49,44.49,0,0,1-8.19-10.25A59.86,59.86,0,0,1,662,877.52a79.58,79.58,0,0,1-2.81-11.24,37.57,37.57,0,0,1,1.35-16.86A45.3,45.3,0,0,1,668.12,835a41.16,41.16,0,0,1,12.11-10.39,36.87,36.87,0,0,1,14.89-4.77c4.08-.15,8.35,1.35,12.83,4.53a47.09,47.09,0,0,1,11.61,11.85A66.52,66.52,0,0,1,727.38,851.5Z"/><path class="cls-2" d="M828.88,493.11c2.92,4.74,4.13,7.66,3.83,8.87a9,9,0,0,1-.91,1.71c-.3.51-.6,1.11-1,1.72a16.88,16.88,0,0,1-3,1.91,6.44,6.44,0,0,1-3.12.81,7.78,7.78,0,0,1-2.42-.51c-4.83-3-8.56-5.54-11.28-7.65a29.28,29.28,0,0,1-6.45-6.86,15.26,15.26,0,0,1-2.72-7.55,85.17,85.17,0,0,1-.41-9.57V451.9a89.31,89.31,0,0,0-2.62-20.55,75.17,75.17,0,0,0-8.16-20,48.61,48.61,0,0,0-13.6-15,31.94,31.94,0,0,0-19.35-5.94A30.89,30.89,0,0,0,745,392.86a33.3,33.3,0,0,0-9.78,6.75,39.86,39.86,0,0,0-7,9.67,57.35,57.35,0,0,0-4.84,11.39,44.64,44.64,0,0,0-2.41,14.1,24,24,0,0,0,4.13,13.3,7.24,7.24,0,0,1,.1,5.95,16.44,16.44,0,0,1-3.43,5.24,36.54,36.54,0,0,1-3.63,3.22,6.51,6.51,0,0,1-4.13,1.62,3.2,3.2,0,0,1-2.31-.91c-2.72-1.82-5.65-3.83-9-6.05s-6.75-4.83-10.08-7.66a86.43,86.43,0,0,1-9.67-9.57,54,54,0,0,1-7.66-12c-.8-2-1.61-4.23-2.42-6.45a21.34,21.34,0,0,1-1.21-7.35,39.27,39.27,0,0,1,1.21-8.67l-.1-.1s3.83-26,31.84-41.91c.1-.11.2-.11.41-.21,1.51-.8,3-1.71,4.63-2.52.3-.1.61-.3.91-.4,1-.5,2-.8,3-1.21a12.14,12.14,0,0,1,2-.8,62.57,62.57,0,0,1,21.36-3.73A57.78,57.78,0,0,1,755,357.29a69.53,69.53,0,0,1,15.72,7.35,87.76,87.76,0,0,1,14,10.79,174.54,174.54,0,0,1,12.69,13.09c1.62,1.92,2.93,3.33,3.93,4.44V328.07a13.1,13.1,0,0,0-.9-4.54,23.32,23.32,0,0,0-2.32-4.13,12.92,12.92,0,0,0-3.22-2.92,7.15,7.15,0,0,0-3.53-1.11H647V478.71c0,7.65.6,13.9,1.81,18.53s2.72,8.17,4.54,10.18c1.91,2.22,1.51,4.64-1,7.46-1.71,2.42-3.53,3.63-5.34,3.63a6,6,0,0,1-3.43-1.21,112.27,112.27,0,0,1-11.69-8,28.56,28.56,0,0,1-6.44-6.86,19.93,19.93,0,0,1-2.73-7.55,92.57,92.57,0,0,1-.5-9.88V315.37H498c.91,9.17,1.72,19.25,2.52,30.23s.91,22.17.61,33.65c1.61-1.3,3.22-2.52,4.83-3.82s3.33-2.62,5.24-4.14c2.12-1.51,4.23-3,6.35-4.73s4.13-3.33,6.05-4.84,3.62-3.12,5.24-4.63,2.92-2.62,3.93-3.53c2.51-2.62,5-4.94,7.45-7.05a13.7,13.7,0,0,1,8.77-3.13,16.89,16.89,0,0,1,7.15,2.12,48.92,48.92,0,0,1,8.26,5,52.46,52.46,0,0,1,9.17,8.76,67.51,67.51,0,0,1,8.27,12.9A65.41,65.41,0,0,1,587.46,390a119.53,119.53,0,0,1,0,32.84,79.32,79.32,0,0,1-9.67,28.42,76.13,76.13,0,0,1-20.16,23c-8.56,6.65-19.14,12-31.74,16.12a66,66,0,0,1-9.57,1.62c-3.12.3-6.25.5-9.37.5a82.7,82.7,0,0,1-34.36-7.15,100.63,100.63,0,0,1-28.31-19.45,131.48,131.48,0,0,1-21.87-28.82,175.1,175.1,0,0,1-14.91-34.76c-4.64-18.44-6.95-30.33-6.95-35.87,0-2.62.5-4.54,1.51-5.64a5,5,0,0,1,3.83-1.82s6.95-1.31,10.68,8.57c3,7.86,5.44,14.4,7.45,19.44s3.53,9,4.44,11.49c1.21,3.22,2.72,6.65,4.33,10.28s3.33,7.15,5.24,10.68,3.83,6.85,5.94,10.07a69.9,69.9,0,0,0,6.35,8.87,53.54,53.54,0,0,0,20.86,14.51,70.26,70.26,0,0,0,50.48-.1A68.81,68.81,0,0,0,543,439.71,63.86,63.86,0,0,0,557.94,420a56.14,56.14,0,0,0,5.64-24.89,47.18,47.18,0,0,0-1.31-11.28c-.91-3.23-2-5.64-3.53-7.16-2.22,2.22-4.63,4.54-7.45,7.16s-5.65,5.24-8.77,8-6.35,5.24-9.77,7.86-6.86,5-10.28,7.35c-5.14,3.43-9.47,6.25-13,8.57s-6.75,4.13-9.37,5.64a51.84,51.84,0,0,1-6.55,3.12A15.13,15.13,0,0,1,489,425.5a1.18,1.18,0,0,0-.61.11,1.27,1.27,0,0,1-.6.1,12.52,12.52,0,0,1-7-2.62,40,40,0,0,1-6.85-6.25,37.84,37.84,0,0,1-5.24-7.76,15.77,15.77,0,0,1-2.11-7.15,16.33,16.33,0,0,1,1.21-5.85c.8-2,1.51-4,2.21-5.84,1.31-3.33,2.12-8.27,2.62-14.71s.71-13.61.81-21.26V342.88c0-3.73,0-7.56-.1-11.29s-.2-7-.31-9.77-.1-4.84-.1-6.45l-72.44-.7h-4.44c-3.32,0-6.75.1-10.37.4a93.35,93.35,0,0,0-10.59,1.31,51,51,0,0,0-10.07,3.12,36.71,36.71,0,0,0-8.77,5.55c.61.3,1.11.7,1.61,1a6.91,6.91,0,0,1,1.31,1.21c8.07,8.06,14,16.12,17.74,24.28s4.94,17.13,3.42,27a64.91,64.91,0,0,1-8.76,24.18,111.16,111.16,0,0,1-16.93,21.46,133.31,133.31,0,0,1-21.46,17.64,134.86,134.86,0,0,1-22.67,12.59,128,128,0,0,1,18,9.78c5.34,2.92,10.89,6.24,16.63,10.07s11.59,8,17.33,12.19,11.28,8.57,16.73,13.1,10.48,8.67,15.11,12.7a72,72,0,0,1,6.65,6.25l4.84,35.87c-3.73-4.94-7.36-9.27-10.78-13.2a138.62,138.62,0,0,0-10.48-11,135.42,135.42,0,0,0-11.39-10c-4-3.23-8.56-6.65-13.6-10.18q-9.52-6.94-20.86-13.6a216.89,216.89,0,0,0-23.58-12.19,193.44,193.44,0,0,0-24.68-9.37,122.34,122.34,0,0,0-24.39-5.14,69.37,69.37,0,0,0-7.05-.91c-2-.2-3.83-.3-5.34-.3-.61-1.21-1.51-2.82-2.52-4.64s-2.22-4-3.43-6.55a41.62,41.62,0,0,1-2.11-4.23c-.71-1.51-1.51-3.42-2.42-5.54s-2-4.74-3.33-7.66-2.82-6.45-4.53-10.58c8-.6,15.52-1.41,22.57-2.32a191.08,191.08,0,0,0,20.66-4,144.34,144.34,0,0,0,19.95-6.35,185.59,185.59,0,0,0,20.75-9.58,76.56,76.56,0,0,0,11.59-7.65,69.6,69.6,0,0,0,9.88-9.68,52.31,52.31,0,0,0,7.25-11.48,40.16,40.16,0,0,0,3.33-13,31.92,31.92,0,0,0-1.92-14.11c-2-5.14-4.94-8.76-8.56-10.88A27.42,27.42,0,0,0,327.09,337a37.79,37.79,0,0,0-9.37,1.3,51.06,51.06,0,0,0-9.17,3.53,49.85,49.85,0,0,0-8.16,5.34,46.5,46.5,0,0,0-6.65,6.75,14.22,14.22,0,0,0-3.83,6.86,28,28,0,0,0-.5,6.85,24.34,24.34,0,0,0,1.21,6,34.1,34.1,0,0,1,2.62,7.06,16.55,16.55,0,0,1-4.74,4.13,14.85,14.85,0,0,1-6.15,1h-1.71a6.86,6.86,0,0,1-1.91-.3c-1-.2-2.22-.5-3.43-.7s-2.52-.41-3.83-.71a51.27,51.27,0,0,1-11.79-3.73,39.57,39.57,0,0,1-10.07-6.65,42.63,42.63,0,0,1-7.56-9.37,35.34,35.34,0,0,1-4.13-12.19,15.49,15.49,0,0,1,1-9,33.39,33.39,0,0,1,4.43-6.85,54.61,54.61,0,0,1,5.94-5.94,58.9,58.9,0,0,1,6.76-4.84,55.5,55.5,0,0,1,6.44-3.73,38.79,38.79,0,0,0-16.42-5.74,141.59,141.59,0,0,0-20.35-1.31l-12.9-23.38h7.86a115.11,115.11,0,0,1,16.42,1.21,77.34,77.34,0,0,1,16.63,4.64,67,67,0,0,1,15.31,8.16,44.18,44.18,0,0,1,10.68,9.67,72.45,72.45,0,0,1,13.51-3.12,99.87,99.87,0,0,1,16.42-1.31h1.91c1.21,0,1.72-.1,1.72-.2a85.79,85.79,0,0,0,11.48-7.36,106.87,106.87,0,0,0,12-10.48q11.34-11.79,14.21-26a25.5,25.5,0,0,0,.51-6.75,58.17,58.17,0,0,0-1.11-6.75,35.2,35.2,0,0,0-5.85-13.2,36.15,36.15,0,0,0-9.67-9.07,43.57,43.57,0,0,0-12.59-5.13,60.73,60.73,0,0,0-14.41-1.62,79.23,79.23,0,0,0-19.15,2.22,68.88,68.88,0,0,0-17.53,7c-10.18,5.75-15.72,11.19-16.53,16.33a13.21,13.21,0,0,0,0,2.82,7.79,7.79,0,0,0,.31,1.21c.1.3.5,1.21,1.11,2.72l-9,10.17c-2.12-.8-3.53-1.41-4.23-1.71s-1.82-.7-3.23-1.21c-2.82-1.11-5.44-2.21-7.86-3.42a59.85,59.85,0,0,1-7-4c-2.12-1.52-4.33-3.13-6.55-5s-4.63-4-7.15-6.45a33.61,33.61,0,0,1,6.75-17,68.58,68.58,0,0,1,13.6-13.4A94.42,94.42,0,0,1,248,204.74c5.85-2.62,11-4.74,15.42-6.25a69.58,69.58,0,0,1,14-3.33,116.85,116.85,0,0,1,14.61-.9,106.27,106.27,0,0,1,21.16,2.11,76.72,76.72,0,0,1,19.44,6.75,81.72,81.72,0,0,1,16.93,11.39A71.29,71.29,0,0,1,363.26,231,72.67,72.67,0,0,1,370,244.84,67,67,0,0,1,373.54,259a63.66,63.66,0,0,1,.61,13.7c-.31,4.43-3.73,15.92-4.34,17.63s-1.1,3.63-1.81,5.64-.91,2.93-.6,2.93,1.81-1,4-2.32a6.14,6.14,0,0,1,1.1-.61c.41-.2.81-.5,1.21-.7l.61-.3a33.71,33.71,0,0,1,13.9-3.43H517.93c0-.4,3.43-1.61,10.38-3.83q11.79-3.93,16.32-9.67a46.71,46.71,0,0,0,6.76-12.39,20,20,0,0,0,1.31-11.29c-2.32-9.27-7.16-16.42-14.51-21.16s-16.83-7.25-28.32-7.25a71.06,71.06,0,0,0-19.24,2.62A87.91,87.91,0,0,0,473.2,235c-10.08,5.34-15.62,10.68-16.53,16.23a11.66,11.66,0,0,0,.71,4.63l.2.41v.1a2.39,2.39,0,0,1,.2.9A2.42,2.42,0,0,1,457,259l-6.45,6.65-.2.2a4,4,0,0,1-1.61,1,4.49,4.49,0,0,1-2-.11.61.61,0,0,1-.41-.1c-.1,0-.1-.1-.2-.2a36.07,36.07,0,0,1-6.55-3.32c-3.12-2-6.25-4.13-9.37-6.45a109.16,109.16,0,0,1-8.77-7.46,93.36,93.36,0,0,1-7-7.15c0-6.25,2.32-12.19,7-17.64a66.21,66.21,0,0,1,18.44-14.3,120.35,120.35,0,0,1,25.4-10.18A106,106,0,0,1,494.15,196a98,98,0,0,1,22,2.42A86.1,86.1,0,0,1,536,205.44a78.92,78.92,0,0,1,16.83,11.29,67.26,67.26,0,0,1,13,15.31,62.33,62.33,0,0,1,7.05,16,96.45,96.45,0,0,1,2.92,16.53c.2,2.82.3,5.54.3,8.36s-.2,5.44-.5,7.86-.51,4.54-.71,6.45-.6,3.32-.8,4.23h43.22c1.51-7.35-6.44-14.31-6.44-14.31-2-.9-4.24-1.91-6.55-3a42.9,42.9,0,0,1-6.45-3.53c-2.12-1.31-3.93-2.52-5.65-3.82a6.56,6.56,0,0,1-2.51-5.14,83.33,83.33,0,0,1,19-29.63,105.86,105.86,0,0,1,27.71-19.45,130.08,130.08,0,0,1,32.65-10.88,178.86,178.86,0,0,1,33.85-3.32A160.16,160.16,0,0,1,732.15,201a199.25,199.25,0,0,1,28.72,7.56,210.61,210.61,0,0,1,27.3,11.88A185.08,185.08,0,0,1,813,236.17c3.83,3.13,7.06,5.85,9.57,8.17a40.52,40.52,0,0,1,6.35,7,45.41,45.41,0,0,1,4.54,8.16c1.21,3,2.52,6.85,3.93,11.59-9-7.06-18-13.71-27.21-19.75a196.73,196.73,0,0,0-28.41-15.82,180.29,180.29,0,0,0-30.64-10.38,147,147,0,0,0-33.85-3.83,150.83,150.83,0,0,0-22.07,1.92A158.56,158.56,0,0,0,671.29,229a116.45,116.45,0,0,0-21.86,9.87,54.32,54.32,0,0,0-16.23,14c-2.72,3.83-4.33,6.85-4.93,9.17L639,272.85q3.16,2.56,3.63,9.67c.1,2.42.2,4.34.3,5.85a13.16,13.16,0,0,0,.5,3.12H850.14l18.74,23.88h-42V468.23a123.37,123.37,0,0,0,1.51,20.65A19.69,19.69,0,0,1,828.88,493.11Z"/></svg>